<svg width="32" height="32" viewBox="0 0 32 32" fill="none" xmlns="http://www.w3.org/2000/svg">
<path d="M24.5 24C24.2033 24 23.9133 24.088 23.6666 24.2528C23.42 24.4176 23.2277 24.6519 23.1142 24.926C23.0007 25.2001 22.9709 25.5017 23.0288 25.7926C23.0867 26.0836 23.2296 26.3509 23.4393 26.5607C23.6491 26.7704 23.9164 26.9133 24.2074 26.9712C24.4983 27.0291 24.7999 26.9993 25.074 26.8858C25.3481 26.7723 25.5824 26.58 25.7472 26.3334C25.912 26.0867 26 25.7967 26 25.5C25.9996 25.1023 25.8414 24.721 25.5602 24.4398C25.279 24.1586 24.8977 24.0004 24.5 24ZM24.5 26C24.4011 26 24.3044 25.9707 24.2222 25.9157C24.14 25.8608 24.0759 25.7827 24.0381 25.6913C24.0002 25.6 23.9903 25.4994 24.0096 25.4025C24.0289 25.3055 24.0765 25.2164 24.1464 25.1464C24.2164 25.0765 24.3055 25.0289 24.4025 25.0096C24.4994 24.9903 24.6 25.0002 24.6913 25.0381C24.7827 25.0759 24.8608 25.14 24.9157 25.2222C24.9707 25.3044 25 25.4011 25 25.5C24.9999 25.6326 24.9471 25.7597 24.8534 25.8534C24.7597 25.9471 24.6326 25.9999 24.5 26Z" fill="black"/>
<path d="M6.5 24C6.20333 24 5.91332 24.088 5.66665 24.2528C5.41997 24.4176 5.22771 24.6519 5.11418 24.926C5.00065 25.2001 4.97094 25.5017 5.02882 25.7926C5.0867 26.0836 5.22956 26.3509 5.43934 26.5607C5.64912 26.7704 5.91639 26.9133 6.20737 26.9712C6.49834 27.0291 6.79994 26.9993 7.07403 26.8858C7.34811 26.7723 7.58238 26.58 7.74721 26.3334C7.91203 26.0867 8 25.7967 8 25.5C7.99955 25.1023 7.84138 24.721 7.56017 24.4398C7.27896 24.1586 6.89769 24.0004 6.5 24ZM6.5 26C6.40111 26 6.30444 25.9707 6.22222 25.9157C6.13999 25.8608 6.0759 25.7827 6.03806 25.6913C6.00022 25.6 5.99032 25.4994 6.00961 25.4025C6.0289 25.3055 6.07652 25.2164 6.14645 25.1464C6.21637 25.0765 6.30547 25.0289 6.40246 25.0096C6.49945 24.9903 6.59998 25.0002 6.69134 25.0381C6.78271 25.0759 6.86079 25.14 6.91574 25.2222C6.97068 25.3044 7 25.4011 7 25.5C6.99985 25.6326 6.94713 25.7597 6.85339 25.8534C6.75965 25.9471 6.63256 25.9999 6.5 26Z" fill="black"/>
<path d="M31.4731 19.8388L29.0938 12.8512V12.8506L29.015 12.6206C29.01 12.6062 29.005 12.5925 28.9988 12.5787C28.7236 11.9603 28.275 11.4348 27.7075 11.0659C27.1399 10.697 26.4776 10.5004 25.8006 10.5H22.5V10H29C29.0905 9.99987 29.1792 9.97522 29.2568 9.92868C29.3344 9.88214 29.3979 9.81545 29.4406 9.7357C29.4833 9.65594 29.5036 9.5661 29.4993 9.47574C29.495 9.38537 29.4663 9.29786 29.4163 9.2225L28.4163 7.7225C28.3704 7.65414 28.3085 7.59809 28.2359 7.55929C28.1633 7.52049 28.0823 7.50013 28 7.5H20V5C20 4.86739 19.9473 4.74021 19.8536 4.64645C19.7598 4.55268 19.6326 4.5 19.5 4.5H18.5V3.5C18.5 3.36739 18.4473 3.24021 18.3536 3.14645C18.2598 3.05268 18.1326 3 18 3H16C15.8674 3 15.7402 3.05268 15.6464 3.14645C15.5527 3.24021 15.5 3.36739 15.5 3.5V4.5H13.5V3.5C13.5 3.36739 13.4473 3.24021 13.3536 3.14645C13.2598 3.05268 13.1326 3 13 3H11C10.8674 3 10.7402 3.05268 10.6464 3.14645C10.5527 3.24021 10.5 3.36739 10.5 3.5V4.5H9.5C9.36739 4.5 9.24022 4.55268 9.14645 4.64645C9.05268 4.74021 9 4.86739 9 5V7.5H7.46375C7.34247 6.66753 6.92584 5.90644 6.28994 5.35567C5.65403 4.80491 4.84126 4.5012 4 4.5C3.92742 4.50002 3.85572 4.51584 3.78987 4.54636C3.72402 4.57688 3.66561 4.62137 3.61868 4.67673C3.57176 4.7321 3.53745 4.79702 3.51815 4.86699C3.49884 4.93695 3.49499 5.01028 3.50688 5.08187L3.91 7.5H2.5C2.36739 7.5 2.24022 7.55268 2.14645 7.64645C2.05268 7.74021 2 7.86739 2 8V9.5C2 9.63261 2.05268 9.75979 2.14645 9.85355C2.24022 9.94732 2.36739 10 2.5 10H7V10.5H4C3.29593 10.501 2.60845 10.7139 2.0271 11.1111C1.44575 11.5083 0.99747 12.0713 0.740628 12.7269C0.730842 12.747 0.722691 12.7679 0.716253 12.7894C0.572729 13.1768 0.499498 13.5868 0.500003 14V25.5C0.500003 25.6326 0.552681 25.7598 0.646449 25.8536C0.740217 25.9473 0.867394 26 1 26H3.03625C3.14634 26.7604 3.50395 27.4633 4.05375 28H1C0.867394 28 0.740217 28.0527 0.646449 28.1464C0.552681 28.2402 0.500003 28.3674 0.500003 28.5C0.500003 28.6326 0.552681 28.7598 0.646449 28.8536C0.740217 28.9473 0.867394 29 1 29H29C29.1326 29 29.2598 28.9473 29.3536 28.8536C29.4473 28.7598 29.5 28.6326 29.5 28.5C29.5 28.3674 29.4473 28.2402 29.3536 28.1464C29.2598 28.0527 29.1326 28 29 28H26.9463C27.4961 27.4633 27.8537 26.7604 27.9638 26H31C31.1326 26 31.2598 25.9473 31.3536 25.8536C31.4473 25.7598 31.5 25.6326 31.5 25.5V20C31.5002 19.9451 31.4911 19.8906 31.4731 19.8388ZM29.6206 17.5H23V13.5H28.2581L29.6206 17.5ZM16.5 4H17.5V4.5H16.5V4ZM15 5.5H19V7.5H15V5.5ZM11.5 4H12.5V4.5H11.5V4ZM10 5.5H14V7.5H10V5.5ZM6.45 7.5H4.92375L4.6025 5.57312C5.06054 5.68796 5.47689 5.92969 5.8037 6.27054C6.13051 6.6114 6.35453 7.03754 6.45 7.5ZM3 9V8.5H27.7325L28.0656 9H3ZM21.5 10V10.5H8V10H21.5ZM1.5 14C1.50033 13.8107 1.52192 13.622 1.56438 13.4375H6V17.5H1.5V14ZM1.5 18.5H6.5C6.63261 18.5 6.75979 18.4473 6.85356 18.3536C6.94732 18.2598 7 18.1326 7 18V12.9375C7 12.8049 6.94732 12.6777 6.85356 12.5839C6.75979 12.4902 6.63261 12.4375 6.5 12.4375H2.05063C2.2844 12.145 2.58101 11.9088 2.91846 11.7466C3.25591 11.5843 3.62556 11.5 4 11.5H25.8006C26.1886 11.5002 26.5712 11.5907 26.9182 11.7642C27.2652 11.9378 27.5671 12.1897 27.8 12.5H22.5C22.3674 12.5 22.2402 12.5527 22.1464 12.6464C22.0527 12.7402 22 12.8674 22 13V18C22 18.1326 22.0527 18.2598 22.1464 18.3536C22.2402 18.4473 22.3674 18.5 22.5 18.5H29.9613L30.4719 20H1.5V18.5ZM1.5 22.5H2L2.00063 23H1.5V22.5ZM6.5 28C6.00555 28 5.5222 27.8534 5.11108 27.5787C4.69995 27.304 4.37952 26.9135 4.1903 26.4567C4.00108 25.9999 3.95158 25.4972 4.04804 25.0123C4.1445 24.5273 4.3826 24.0819 4.73224 23.7322C5.08187 23.3826 5.52732 23.1445 6.01228 23.048C6.49723 22.9516 6.9999 23.0011 7.45671 23.1903C7.91353 23.3795 8.30397 23.7 8.57868 24.1111C8.85338 24.5222 9 25.0055 9 25.5C8.99934 26.1628 8.73574 26.7983 8.26704 27.267C7.79834 27.7357 7.16284 27.9993 6.5 28ZM8.94625 28C9.49606 27.4633 9.85367 26.7604 9.96375 26H21.0363C21.1463 26.7604 21.5039 27.4633 22.0538 28H8.94625ZM24.5 28C24.0055 28 23.5222 27.8534 23.1111 27.5787C22.7 27.304 22.3795 26.9135 22.1903 26.4567C22.0011 25.9999 21.9516 25.4972 22.048 25.0123C22.1445 24.5273 22.3826 24.0819 22.7322 23.7322C23.0819 23.3826 23.5273 23.1445 24.0123 23.048C24.4972 22.9516 24.9999 23.0011 25.4567 23.1903C25.9135 23.3795 26.304 23.7 26.5787 24.1111C26.8534 24.5222 27 25.0055 27 25.5C26.9993 26.1628 26.7357 26.7983 26.267 27.267C25.7983 27.7357 25.1628 27.9993 24.5 28ZM30.5 23H29.5V22.5H30.5V23ZM30.5 21.5H29.5C29.2349 21.5003 28.9807 21.6058 28.7933 21.7933C28.6058 21.9807 28.5003 22.2349 28.5 22.5V23C28.5003 23.2651 28.6058 23.5193 28.7933 23.7067C28.9807 23.8942 29.2349 23.9997 29.5 24H30.5V25H27.9638C27.8436 24.1671 27.4272 23.4053 26.7911 22.8544C26.1549 22.3034 25.3416 22.0002 24.5 22.0002C23.6584 22.0002 22.8451 22.3034 22.2089 22.8544C21.5728 23.4053 21.1564 24.1671 21.0363 25H9.96375C9.84356 24.1671 9.42725 23.4053 8.7911 22.8544C8.15495 22.3034 7.34157 22.0002 6.5 22.0002C5.65844 22.0002 4.84506 22.3034 4.20891 22.8544C3.57276 23.4053 3.15644 24.1671 3.03625 25H1.5V24H2C2.26511 23.9997 2.51926 23.8942 2.70673 23.7067C2.89419 23.5193 2.99966 23.2651 3 23V22.5C2.99966 22.2349 2.89419 21.9807 2.70673 21.7933C2.51926 21.6058 2.26511 21.5003 2 21.5H1.5V21H30.5V21.5Z" fill="black"/>
<path d="M8.5 18.5H20.5C20.6326 18.5 20.7598 18.4473 20.8536 18.3536C20.9473 18.2598 21 18.1326 21 18V13C21 12.8674 20.9473 12.7402 20.8536 12.6464C20.7598 12.5527 20.6326 12.5 20.5 12.5H8.5C8.36739 12.5 8.24021 12.5527 8.14645 12.6464C8.05268 12.7402 8 12.8674 8 13V18C8 18.1326 8.05268 18.2598 8.14645 18.3536C8.24021 18.4473 8.36739 18.5 8.5 18.5ZM20 17.5H15V13.5H20V17.5ZM9 13.5H14V17.5H9V13.5Z" fill="black"/>
<path d="M31 28H30.5C30.3674 28 30.2402 28.0527 30.1464 28.1464C30.0527 28.2402 30 28.3674 30 28.5C30 28.6326 30.0527 28.7598 30.1464 28.8536C30.2402 28.9473 30.3674 29 30.5 29H31C31.1326 29 31.2598 28.9473 31.3536 28.8536C31.4473 28.7598 31.5 28.6326 31.5 28.5C31.5 28.3674 31.4473 28.2402 31.3536 28.1464C31.2598 28.0527 31.1326 28 31 28Z" fill="black"/>
</svg>
