<svg width="40" height="41" viewBox="0 0 40 41" fill="none" xmlns="http://www.w3.org/2000/svg">
<path d="M19.9997 8.09043L7.49976 20.5903L19.9997 33.0902L32.4996 20.5903L19.9997 8.09043Z" fill="url(#paint0_linear_770_991)"/>
<path fill-rule="evenodd" clip-rule="evenodd" d="M24.3588 3.9499C21.9628 1.55382 18.0373 1.55382 15.6412 3.9499L3.35957 16.2316C0.963492 18.6277 0.963492 22.5532 3.35957 24.9492L15.6412 37.2308L15.0888 37.7833L15.6413 37.2308C18.0373 39.627 21.9627 39.627 24.3588 37.2308L24.9113 37.7833L24.3588 37.2308L36.6404 24.9492C39.0365 22.5531 39.0365 18.6276 36.6404 16.2315L24.3588 3.9499ZM14.5364 2.84504C17.5427 -0.161238 22.4574 -0.161238 25.4637 2.84504L37.7453 15.1266C40.7516 18.1329 40.7516 23.0478 37.7453 26.054L25.4637 38.3357C22.4574 41.3421 17.5427 41.3421 14.5364 38.3357L2.25471 26.0541L2.80714 25.5017L2.25471 26.0541C-0.75157 23.0478 -0.75157 18.133 2.25471 15.1267L14.5364 2.84504Z" fill="url(#paint1_linear_770_991)"/>
<path fill-rule="evenodd" clip-rule="evenodd" d="M30.953 14.2366C31.2581 14.5417 31.2581 15.0364 30.953 15.3415L20.5526 25.7419C20.2475 26.047 19.7528 26.047 19.4477 25.7419L14.8487 21.1429C14.5436 20.8378 14.5436 20.3432 14.8487 20.0381C15.1538 19.733 15.6485 19.733 15.9536 20.0381L20.0001 24.0846L29.8481 14.2366C30.1532 13.9315 30.6479 13.9315 30.953 14.2366Z" fill="#171717"/>
<defs>
<linearGradient id="paint0_linear_770_991" x1="13.7497" y1="14.3404" x2="26.2496" y2="26.8403" gradientUnits="userSpaceOnUse">
<stop stop-color="#67F8C0"/>
<stop offset="1" stop-color="#3F91DD"/>
</linearGradient>
<linearGradient id="paint1_linear_770_991" x1="20" y1="0.590332" x2="20" y2="40.5905" gradientUnits="userSpaceOnUse">
<stop stop-color="#67F8C0"/>
<stop offset="1" stop-color="#3F91DD"/>
</linearGradient>
</defs>
</svg>
