<svg width="50" height="26" viewBox="0 0 50 26" fill="none" xmlns="http://www.w3.org/2000/svg">
<path d="M8.54842 12.2785V13.3399C8.54842 13.3656 8.56125 13.3784 8.58692 13.3784C21.8484 13.3781 35.1092 13.3783 48.3692 13.379C48.6779 13.379 48.8999 13.3971 49.0352 13.4334C49.8046 13.6391 50.3936 14.4816 49.6748 15.1542C49.3829 15.4274 49.0368 15.5639 48.6365 15.5639C35.7456 15.5643 22.8548 15.5645 9.96399 15.5645C8.88499 15.5645 7.46887 15.6266 6.69234 15.565C3.2766 15.2928 0.515303 12.7075 0.100641 9.30332C0.0698437 9.05034 0.0526118 8.68462 0.0489455 8.20616C0.0302472 5.80252 0.0139321 3.4018 0 1.00402C0 0.996872 0.00278148 0.990017 0.00773199 0.984963C0.0126825 0.97991 0.0193963 0.977072 0.0263974 0.977072C2.38532 0.960573 4.74478 0.943709 7.1048 0.926477C7.58179 0.922811 7.94788 0.933625 8.20305 0.958923C11.5764 1.29054 14.2602 3.88466 14.6468 7.2652C14.6754 7.51561 14.6915 7.88188 14.6952 8.364C14.7047 9.65308 14.7137 10.9392 14.7222 12.2224C14.7222 12.2262 14.7216 12.2299 14.7202 12.2333C14.7188 12.2368 14.7168 12.24 14.7141 12.2426C14.7115 12.2453 14.7084 12.2474 14.705 12.2489C14.7015 12.2503 14.6978 12.251 14.6941 12.251H8.57592C8.55759 12.251 8.54842 12.2602 8.54842 12.2785Z" fill="url(#paint0_linear_850_55)"/>
<path d="M20.7485 10.1464C18.96 9.82685 17.7424 8.25674 17.7419 6.45236C17.7415 5.22377 17.738 3.99903 17.7314 2.77814C17.7314 2.77246 17.7324 2.76683 17.7346 2.76156C17.7367 2.75629 17.7398 2.7515 17.7438 2.74745C17.7478 2.74341 17.7526 2.74021 17.7578 2.73802C17.763 2.73583 17.7687 2.7347 17.7743 2.7347C19.0121 2.727 20.2539 2.72242 21.4997 2.72095C22.7925 2.71948 23.81 3.21957 24.5525 4.22121C25.1404 5.01479 25.2454 5.79737 25.2515 6.82358C25.2577 7.93411 25.2637 9.04482 25.2696 10.1557C25.2696 10.1752 25.2599 10.1849 25.2405 10.1849C24.1065 10.1918 22.9745 10.1977 21.8445 10.2025C21.3356 10.2047 20.9703 10.186 20.7485 10.1464Z" fill="url(#paint1_linear_850_55)"/>
<path d="M31.0286 10.7534C30.2059 10.7501 29.5729 10.1122 29.5526 9.29002C29.5405 8.7947 29.5381 8.29333 29.5454 7.78591C29.5454 7.76501 29.5559 7.75474 29.5768 7.75511C29.9727 7.75694 30.3667 7.75456 30.7586 7.74796C31.0743 7.74246 31.3133 7.76244 31.4757 7.80791C32.2864 8.03284 32.558 8.67023 32.5536 9.45721C32.5514 9.8726 32.5549 10.2876 32.5641 10.7023C32.5645 10.7221 32.5549 10.7322 32.5355 10.7325C31.8513 10.7476 31.3491 10.7545 31.0286 10.7534Z" fill="url(#paint2_linear_850_55)"/>
<path d="M44.1328 20.4316C43.9035 19.759 43.0411 19.4719 42.4164 19.8723C42.0839 20.0857 41.9134 20.4109 41.9049 20.8479C41.8925 21.5031 41.8868 22.157 41.8879 22.8096C41.8879 22.817 41.8849 22.8241 41.8797 22.8294C41.8744 22.8347 41.8673 22.8376 41.8599 22.8376H38.4518C38.4335 22.8376 38.4243 22.8285 38.4243 22.8101V17.3244C38.4243 17.3171 38.4272 17.3101 38.4324 17.3049C38.4375 17.2998 38.4445 17.2969 38.4518 17.2969H48.0897C48.097 17.2969 48.104 17.2998 48.1091 17.3049C48.1143 17.3101 48.1172 17.3171 48.1172 17.3244V22.8101C48.1172 22.8174 48.1143 22.8244 48.1091 22.8296C48.104 22.8347 48.097 22.8376 48.0897 22.8376H44.2406C44.2226 22.8376 44.2136 22.8286 44.2136 22.8107C44.2118 22.3403 44.2114 21.8712 44.2125 21.4034C44.214 20.9146 44.1874 20.5907 44.1328 20.4316Z" fill="url(#paint3_linear_850_55)"/>
<path d="M25.7619 22.7667C24.8704 22.7717 24.0768 22.7541 23.2304 22.7541C23.2114 22.7541 23.202 22.7445 23.2024 22.7255C23.2108 21.8994 23.2149 21.0756 23.2145 20.254C23.2145 19.0865 23.9415 18.0624 25.0761 17.7737C25.2832 17.7213 25.6075 17.6962 26.0489 17.6984C26.7925 17.702 27.5358 17.707 28.279 17.7132C28.2984 17.7132 28.308 17.7228 28.3076 17.7418C28.3028 18.5924 28.2964 19.4432 28.2883 20.2941C28.2746 21.713 27.1747 22.759 25.7619 22.7667Z" fill="url(#paint4_linear_850_55)"/>
<path d="M11.5654 25.0736C10.6553 25.0637 9.74346 25.05 8.83384 25.0511C8.81405 25.0511 8.80433 25.0412 8.8047 25.0214C8.81826 24.0176 8.82596 23.0148 8.82779 22.0132C8.83054 20.2594 10.1053 18.8774 11.8756 18.8873C12.8828 18.8935 13.9128 18.8948 14.9658 18.8911C14.9757 18.8911 14.9856 18.8931 14.9947 18.8969C15.0039 18.9006 15.0123 18.9062 15.0193 18.9132C15.0263 18.9202 15.0318 18.9285 15.0356 18.9377C15.0393 18.9468 15.0412 18.9566 15.0411 18.9664C15.0342 19.9674 15.0279 20.9873 15.0224 22.0264C15.0153 23.4909 14.0325 24.7107 12.5944 25.0082C12.3609 25.0562 12.0179 25.078 11.5654 25.0736Z" fill="url(#paint5_linear_850_55)"/>
<defs>
<linearGradient id="paint0_linear_850_55" x1="25" y1="0.925781" x2="25" y2="15.5923" gradientUnits="userSpaceOnUse">
<stop stop-color="#67F8C0"/>
<stop offset="1" stop-color="#3F91DD"/>
</linearGradient>
<linearGradient id="paint1_linear_850_55" x1="21.5005" y1="2.72095" x2="21.5005" y2="10.2026" gradientUnits="userSpaceOnUse">
<stop stop-color="#67F8C0"/>
<stop offset="1" stop-color="#3F91DD"/>
</linearGradient>
<linearGradient id="paint2_linear_850_55" x1="31.0527" y1="7.74707" x2="31.0527" y2="10.7536" gradientUnits="userSpaceOnUse">
<stop stop-color="#67F8C0"/>
<stop offset="1" stop-color="#3F91DD"/>
</linearGradient>
<linearGradient id="paint3_linear_850_55" x1="43.2707" y1="17.2969" x2="43.2707" y2="22.8376" gradientUnits="userSpaceOnUse">
<stop stop-color="#67F8C0"/>
<stop offset="1" stop-color="#3F91DD"/>
</linearGradient>
<linearGradient id="paint4_linear_850_55" x1="25.755" y1="17.6982" x2="25.755" y2="22.7676" gradientUnits="userSpaceOnUse">
<stop stop-color="#67F8C0"/>
<stop offset="1" stop-color="#3F91DD"/>
</linearGradient>
<linearGradient id="paint5_linear_850_55" x1="11.9229" y1="18.8872" x2="11.9229" y2="25.0742" gradientUnits="userSpaceOnUse">
<stop stop-color="#67F8C0"/>
<stop offset="1" stop-color="#3F91DD"/>
</linearGradient>
</defs>
</svg>
