<svg width="145" height="41" viewBox="0 0 145 41" fill="none" xmlns="http://www.w3.org/2000/svg">
<path d="M18.0213 40.2618C15.5766 40.2618 13.2782 39.7797 11.1262 38.8156C8.97413 37.8343 7.08035 36.4828 5.44481 34.7612C3.82648 33.0396 2.55248 31.0511 1.62281 28.7958C0.710347 26.5232 0.254118 24.0957 0.254118 21.5133C0.254118 18.9137 0.710347 16.4862 1.62281 14.2308C2.55248 11.9583 3.82648 9.96983 5.44481 8.26542C7.08035 6.5438 8.97413 5.20094 11.1262 4.23683C13.2782 3.2555 15.5766 2.76484 18.0213 2.76484C20.948 2.76484 23.6423 3.44488 26.1043 4.80496C28.5662 6.14783 30.6063 7.94692 32.2246 10.2022L26.5949 13.2237C25.5792 11.9669 24.3138 10.9598 22.7988 10.2022C21.3009 9.44474 19.7084 9.06598 18.0213 9.06598C16.4374 9.06598 14.9482 9.39309 13.5536 10.0473C12.1591 10.6843 10.9368 11.5795 9.88659 12.733C8.8364 13.8693 8.01863 15.195 7.43328 16.71C6.84793 18.2078 6.55525 19.8089 6.55525 21.5133C6.55525 23.2349 6.84793 24.8446 7.43328 26.3425C8.03585 27.8403 8.86223 29.1659 9.91242 30.3194C10.9626 31.4557 12.1763 32.3509 13.5536 33.0051C14.9482 33.6421 16.4374 33.9606 18.0213 33.9606C19.7429 33.9606 21.344 33.5819 22.8246 32.8244C24.3224 32.0496 25.5792 31.0339 26.5949 29.7771L32.2246 32.8244C30.6063 35.0625 28.5662 36.8616 26.1043 38.2216C23.6423 39.5817 20.948 40.2618 18.0213 40.2618ZM37.0982 39.5903V0.853841H43.3993V39.5903H37.0982ZM60.566 40.2618C58.1902 40.2618 56.0209 39.6506 54.0583 38.4282C52.1129 37.2059 50.5548 35.5703 49.3841 33.5216C48.2306 31.4557 47.6539 29.1745 47.6539 26.6782C47.6539 24.7844 47.9896 23.0197 48.661 21.3842C49.3324 19.7314 50.2535 18.2853 51.4242 17.0457C52.6121 15.7889 53.9894 14.8076 55.5561 14.1017C57.1228 13.3959 58.7928 13.0429 60.566 13.0429C62.9419 13.0429 65.1025 13.6541 67.0479 14.8765C69.0106 16.0988 70.5686 17.743 71.7221 19.8089C72.8928 21.8748 73.4782 24.1646 73.4782 26.6782C73.4782 28.5547 73.1425 30.3108 72.471 31.9463C71.7996 33.5819 70.8699 35.028 69.682 36.2848C68.5113 37.5244 67.1426 38.4971 65.5759 39.203C64.0265 39.9088 62.3565 40.2618 60.566 40.2618ZM60.566 33.9606C61.8228 33.9606 62.9505 33.6249 63.949 32.9535C64.9476 32.282 65.7309 31.3954 66.299 30.2936C66.8844 29.1917 67.1771 27.9866 67.1771 26.6782C67.1771 25.3353 66.8758 24.113 66.2732 23.0111C65.6878 21.8921 64.8873 21.0054 63.8715 20.3512C62.873 19.6798 61.7712 19.3441 60.566 19.3441C59.3265 19.3441 58.2074 19.6798 57.2089 20.3512C56.2103 21.0226 55.4184 21.9179 54.833 23.0369C54.2477 24.156 53.955 25.3697 53.955 26.6782C53.955 28.0382 54.2563 29.2692 54.8588 30.371C55.4614 31.4729 56.262 32.3509 57.2605 33.0051C58.2763 33.6421 59.3781 33.9606 60.566 33.9606ZM85.319 40.0552C83.9762 39.9691 82.6763 39.7022 81.4196 39.2546C80.18 38.7898 79.0782 38.1614 78.1141 37.3694C77.1499 36.5775 76.4096 35.6306 75.8932 34.5288L81.213 32.2562C81.4196 32.6005 81.7553 32.9707 82.2201 33.3667C82.685 33.7454 83.2359 34.0639 83.8729 34.3222C84.5271 34.5804 85.2416 34.7095 86.0163 34.7095C86.6705 34.7095 87.2903 34.6235 87.8756 34.4513C88.4782 34.2619 88.9603 33.9778 89.3218 33.5991C89.7006 33.2203 89.8899 32.7297 89.8899 32.1271C89.8899 31.4901 89.6661 30.9994 89.2185 30.6551C88.7881 30.2936 88.2372 30.0267 87.5658 29.8546C86.9115 29.6652 86.2745 29.493 85.6548 29.3381C84.0192 29.011 82.4956 28.5031 81.0839 27.8144C79.6893 27.1258 78.5617 26.2392 77.7009 25.1545C76.8573 24.0527 76.4355 22.727 76.4355 21.1776C76.4355 19.4732 76.8831 18.0012 77.7783 16.7616C78.6908 15.5221 79.8701 14.5666 81.3163 13.8951C82.7796 13.2237 84.3549 12.888 86.0421 12.888C88.0909 12.888 89.9674 13.3184 91.6718 14.1792C93.3934 15.0228 94.7535 16.2193 95.7521 17.7688L90.768 20.7127C90.5269 20.2996 90.1912 19.9208 89.7608 19.5765C89.3304 19.2149 88.8398 18.9223 88.2888 18.6985C87.7379 18.4574 87.1612 18.3197 86.5586 18.2853C85.7839 18.2508 85.078 18.3197 84.441 18.4919C83.804 18.664 83.2875 18.9567 82.8916 19.3699C82.5128 19.7831 82.3234 20.334 82.3234 21.0226C82.3234 21.6769 82.5817 22.1675 83.0981 22.4946C83.6146 22.8045 84.2344 23.0455 84.9575 23.2177C85.6978 23.3899 86.4037 23.5792 87.0751 23.7858C88.5901 24.2851 90.0105 24.8963 91.3361 25.6194C92.679 26.3425 93.755 27.2291 94.5641 28.2793C95.3733 29.3295 95.7607 30.5863 95.7262 32.0496C95.7262 33.7196 95.227 35.183 94.2284 36.4398C93.2299 37.6793 91.9387 38.6262 90.3548 39.2804C88.7881 39.9347 87.1095 40.1929 85.319 40.0552ZM111.105 40.2618C108.729 40.2618 106.56 39.6506 104.597 38.4282C102.652 37.2059 101.094 35.5617 99.9231 33.4958C98.7696 31.4298 98.1929 29.1487 98.1929 26.6523C98.1929 24.7758 98.5286 23.0197 99.2 21.3842C99.8715 19.7314 100.793 18.2853 101.963 17.0457C103.151 15.7889 104.528 14.8076 106.095 14.1017C107.662 13.3959 109.332 13.0429 111.105 13.0429C113.119 13.0429 114.961 13.4733 116.631 14.3341C118.319 15.1777 119.748 16.3398 120.918 17.8204C122.089 19.301 122.941 20.9882 123.475 22.882C124.009 24.7758 124.129 26.7556 123.836 28.8216H104.959C105.2 29.7857 105.596 30.6551 106.147 31.4298C106.698 32.1874 107.395 32.7985 108.239 33.2634C109.082 33.711 110.038 33.9434 111.105 33.9606C112.207 33.9778 113.205 33.7196 114.101 33.1859C115.013 32.635 115.771 31.8947 116.373 30.965L122.803 32.4628C121.753 34.7526 120.187 36.6291 118.103 38.0925C116.02 39.5387 113.687 40.2618 111.105 40.2618ZM104.752 24.0957H117.458C117.268 23.0628 116.864 22.1331 116.244 21.3067C115.642 20.4631 114.893 19.7917 113.997 19.2924C113.102 18.7931 112.138 18.5435 111.105 18.5435C110.072 18.5435 109.117 18.7931 108.239 19.2924C107.361 19.7745 106.612 20.4373 105.992 21.2809C105.389 22.1073 104.976 23.0455 104.752 24.0957ZM128.064 39.5903L128.038 13.766H134.339L134.365 16.0644C135.243 15.1347 136.293 14.403 137.516 13.8693C138.738 13.3184 140.055 13.0429 141.467 13.0429C142.414 13.0429 143.361 13.1807 144.307 13.4561L141.828 19.8089C141.174 19.5507 140.52 19.4215 139.866 19.4215C138.85 19.4215 137.92 19.6712 137.077 20.1704C136.25 20.6525 135.587 21.3153 135.088 22.1589C134.606 22.9853 134.365 23.9064 134.365 24.9221V39.5903H128.064Z" fill="url(#paint0_linear_770_1212)"/>
<defs>
<linearGradient id="paint0_linear_770_1212" x1="71.5" y1="-17.4097" x2="71.5" y2="59.5903" gradientUnits="userSpaceOnUse">
<stop stop-color="#67F8C0"/>
<stop offset="1" stop-color="#3F91DD"/>
</linearGradient>
</defs>
</svg>
