<svg width="29" height="30" viewBox="0 0 29 30" fill="none" xmlns="http://www.w3.org/2000/svg">
<circle cx="14.5" cy="14.5903" r="14.5" fill="#171717"/>
<path d="M12.2671 18.74C12.1898 18.74 12.1202 18.7168 12.0583 18.6704C12.0119 18.6085 11.9887 18.5389 11.9887 18.4616V17.7192C11.9887 16.9458 12.182 16.3272 12.5687 15.8632C12.9708 15.3837 13.5431 14.881 14.2855 14.3552C14.8887 13.9376 15.3372 13.5664 15.6311 13.2416C15.925 12.9168 16.0719 12.5224 16.0719 12.0584C16.0719 11.5634 15.8863 11.169 15.5151 10.8752C15.1439 10.5658 14.6567 10.4112 14.0535 10.4112C13.4039 10.4112 12.878 10.5736 12.4759 10.8984C12.0892 11.2232 11.8959 11.6408 11.8959 12.1512V12.5224C11.8959 12.6925 11.8031 12.7776 11.6175 12.7776L8.9031 12.6616C8.82576 12.6616 8.75616 12.6384 8.6943 12.592C8.6479 12.5301 8.6247 12.4605 8.6247 12.3832V12.1512C8.6247 11.2232 8.8567 10.4034 9.3207 9.69198C9.7847 8.96505 10.4266 8.40825 11.2463 8.02158C12.0815 7.61945 13.0404 7.41838 14.1231 7.41838C15.1748 7.41838 16.0951 7.61171 16.8839 7.99838C17.6882 8.36958 18.3068 8.89545 18.7399 9.57598C19.173 10.2565 19.3895 11.0453 19.3895 11.9424C19.3895 12.6229 19.2658 13.2106 19.0183 13.7056C18.7863 14.185 18.5002 14.5794 18.1599 14.8888C17.8196 15.1981 17.3866 15.5384 16.8607 15.9096C16.3039 16.2962 15.894 16.6288 15.6311 16.9072C15.3682 17.1856 15.2367 17.5258 15.2367 17.928V18.4616C15.2367 18.5389 15.2058 18.6085 15.1439 18.6704C15.0975 18.7168 15.0356 18.74 14.9583 18.74H12.2671ZM13.5199 23.9368C12.994 23.9368 12.5532 23.7666 12.1975 23.4264C11.8572 23.0706 11.6871 22.6298 11.6871 22.104C11.6871 21.5781 11.8572 21.145 12.1975 20.8048C12.5378 20.4645 12.9786 20.2944 13.5199 20.2944C14.0612 20.2944 14.4943 20.4645 14.8191 20.8048C15.1594 21.1296 15.3295 21.5626 15.3295 22.104C15.3295 22.6298 15.1594 23.0706 14.8191 23.4264C14.4788 23.7666 14.0458 23.9368 13.5199 23.9368Z" fill="url(#paint0_linear_770_1162)"/>
<defs>
<linearGradient id="paint0_linear_770_1162" x1="14.4751" y1="5.89038" x2="14.4751" y2="23.8904" gradientUnits="userSpaceOnUse">
<stop stop-color="#67F8C0"/>
<stop offset="1" stop-color="#3F91DD"/>
</linearGradient>
</defs>
</svg>
