<svg width="24" height="24" viewBox="0 0 24 24" fill="none" xmlns="http://www.w3.org/2000/svg">
<path d="M21.097 0.590332C21.7748 0.590332 22.4248 0.859577 22.9041 1.33884C23.3833 1.8181 23.6526 2.46811 23.6526 3.14589V21.0348C23.6526 21.7126 23.3833 22.3626 22.9041 22.8418C22.4248 23.3211 21.7748 23.5903 21.097 23.5903H3.20814C2.53037 23.5903 1.88035 23.3211 1.40109 22.8418C0.921833 22.3626 0.652588 21.7126 0.652588 21.0348V3.14589C0.652588 2.46811 0.921833 1.8181 1.40109 1.33884C1.88035 0.859577 2.53037 0.590332 3.20814 0.590332H21.097ZM20.4581 20.3959V13.6237C20.4581 12.5189 20.0193 11.4594 19.2381 10.6782C18.4569 9.89698 17.3974 9.45811 16.2926 9.45811C15.2065 9.45811 13.9415 10.1226 13.3281 11.1192V9.70089H9.76314V20.3959H13.3281V14.0964C13.3281 13.1126 14.1204 12.3076 15.1043 12.3076C15.5787 12.3076 16.0337 12.496 16.3692 12.8315C16.7047 13.167 16.8931 13.622 16.8931 14.0964V20.3959H20.4581ZM5.61037 7.69478C6.1797 7.69478 6.72571 7.46861 7.12829 7.06603C7.53087 6.66346 7.75703 6.11744 7.75703 5.54811C7.75703 4.35978 6.7987 3.38867 5.61037 3.38867C5.03765 3.38867 4.48838 3.61618 4.08341 4.02115C3.67843 4.42613 3.45092 4.97539 3.45092 5.54811C3.45092 6.73644 4.42203 7.69478 5.61037 7.69478ZM7.38648 20.3959V9.70089H3.84703V20.3959H7.38648Z" fill="white"/>
</svg>
