<svg id="logo" xmlns="http://www.w3.org/2000/svg" viewBox="0 0 300 300"><defs><style>.cls-1{fill:#fff;}</style></defs><title>logo</title><path id="_Compound_Path_" data-name="&lt;Compound Path&gt;" class="cls-1" d="M298.71,145.82c.43-.54.8-1.13,1.37-1.95L260.9,125,288,91c-1-.54-1.6-1-2.28-1.28-11.69-5.62-23.36-11.25-35.08-16.8A4.38,4.38,0,0,1,248,69.51c-2.85-12.78-5.83-25.53-8.68-38.3-.41-1.81-1-2-2.6-1.24-6.28,3.11-12.59,6.12-18.9,9.16-6,2.89-12,5.76-18.36,8.79-3.28-14.27-6.49-28.23-9.75-42.39-1.05.45-1.71.69-2.34,1q-17.7,8.5-35.39,17a3.66,3.66,0,0,1-3.6,0c-11.9-5.79-23.83-11.49-35.75-17.21-.57-.27-1.15-.49-2-.88-3.28,14.24-6.49,28.21-9.76,42.41L61.61,29.11c-.3,1-.53,1.68-.68,2.36q-4.36,19.14-8.69,38.29a3.91,3.91,0,0,1-2.33,3C38,78.41,26.17,84.14,14.32,89.85c-.62.29-1.19.67-2,1.16,9.1,11.41,18,22.61,27.13,34L.21,143.88c.65.9,1.06,1.54,1.53,2.13,8,10,15.89,20,23.92,29.94A5.26,5.26,0,0,1,26.88,181c-3,12.42-5.76,24.88-8.59,37.33-.18.78-.25,1.59-.43,2.79H61.29c-3.24,14.26-6.4,28.13-9.62,42.27,1.28.08,2.23.18,3.17.18q19.36,0,38.71,0A3.49,3.49,0,0,1,96.67,265q12.08,15.25,24.24,30.42c.6.75,1.26,1.44,2.11,2.42,9.11-11.42,18-22.65,27.13-34l27.13,34.05c.89-1,1.58-1.75,2.21-2.54q12-15.06,24-30.13a3.86,3.86,0,0,1,3.43-1.64c12.91.05,25.81,0,38.71,0,.93,0,1.85-.13,3-.22-3.24-14.21-6.39-28.07-9.61-42.19,1-.06,1.78-.13,2.53-.13h38.52c2.49,0,2.55-.07,2-2.54-2.92-12.77-5.81-25.54-8.79-38.29a3.68,3.68,0,0,1,.82-3.52Q286.46,161.3,298.71,145.82Zm-87-91c11.39,5.47,22.76,11,34.17,16.39a4.22,4.22,0,0,1,2.62,3.23c3.59,16,7.28,31.92,10.93,47.88.12.54.16,1.1.29,2.06-2.48-1.17-4.63-2.17-6.76-3.19q-19.69-9.5-39.4-19a3.71,3.71,0,0,1-2.37-2.75Q205.65,74.92,200,50.4c0-.25-.07-.5-.17-1.26ZM103.86,47.48c14.65-7.07,29.31-14.1,43.93-21.21a4.74,4.74,0,0,1,4.67,0c14.5,7.07,29,14,43.59,21,.63.3,1.24.64,2.28,1.18l-18.14,8.75c-9.4,4.54-18.78,9.1-28.22,13.55a4.23,4.23,0,0,1-3.21.18c-15.17-7.21-30.28-14.52-45.4-21.81a13.52,13.52,0,0,1-1.15-.73C102.89,48,103.36,47.72,103.86,47.48Zm45.83,25.14-59.91,28.9ZM116,220,74.67,168.14Zm-41.7-52.94c5-21.74,9.82-43,14.81-64.8Zm-32-51.28Q47.15,94.89,52,74a3.73,3.73,0,0,1,1.64-2.31c15.21-7.4,30.46-14.7,45.7-22,.28-.14.58-.25,1.18-.49-.87,3.88-1.68,7.51-2.5,11.14C95.1,73.2,92.12,86.07,89.24,99a4.4,4.4,0,0,1-2.7,3.38c-14.5,6.91-29,13.91-43.44,20.89-.74.35-1.51.67-2.63,1.17C41.15,121.31,41.73,118.55,42.36,115.8Zm19.15,104c-.89-1.07-1.55-1.85-2.18-2.64Q44.41,198.46,29.46,179.8a3.88,3.88,0,0,1-.88-3.7c3.73-16.07,7.36-32.16,11-48.24.11-.5.28-1,.55-1.89,3.09,3.87,5.94,7.46,8.81,11q11.52,14.44,23.08,28.85a4.44,4.44,0,0,1,1,4.25c-3.7,15.83-7.31,31.69-10.94,47.54C62,218.25,61.77,218.85,61.51,219.81ZM146.92,263c-16.15,0-32.29,0-48.44,0a4.76,4.76,0,0,1-4.23-2c-9.88-12.52-19.86-25-29.81-37.43-.52-.65-1-1.32-1.83-2.39,1.07-.07,1.69-.14,2.32-.14,16.34,0,32.68,0,49,0a3.74,3.74,0,0,1,3.3,1.53q15.48,19.5,31,38.94c.27.34.48.73.92,1.38C148.26,262.94,147.59,263,146.92,263ZM149.69,206A54.26,54.26,0,1,1,204,151.7,54.27,54.27,0,0,1,149.69,206Zm86.69,17q-15.33,19.23-30.65,38.48a3.94,3.94,0,0,1-3.45,1.64q-24.4-.06-48.82,0c-.67,0-1.35-.08-2.45-.15,1.15-1.49,2-2.66,2.93-3.8q14.63-18.31,29.28-36.6a4,4,0,0,1,2.71-1.35c16.53-.08,33.06-.06,49.59-.06.56,0,1.13.08,2.1.15C237.08,222,236.75,222.45,236.38,222.92Zm34.94-43.85q-15.88,20-31.87,40a2.84,2.84,0,0,0-.32.73l-.47-.23q-1.44-6.23-2.87-12.45c-2.82-12.31-5.61-24.63-8.51-36.93a4.64,4.64,0,0,1,1-4.42q15.24-18.95,30.35-38c.42-.53.88-1,1.55-1.83,1.51,6.54,2.95,12.69,4.35,18.85q3.63,15.9,7.17,31.81A3.31,3.31,0,0,1,271.32,179.07Z"/></svg>