<svg id="logo" xmlns="http://www.w3.org/2000/svg" viewBox="0 0 300 300"><defs><style>.cls-1{fill:#019966;}.cls-2{fill:#fff;}</style></defs><title>logo-dark</title><rect class="cls-1" x="-0.02" y="0.08" width="300.04" height="299.84"/><path id="_Compound_Path_" data-name="&lt;Compound Path&gt;" class="cls-2" d="M192.13,111.88c.12-.15.23-.32.39-.55L181.41,106l7.69-9.64c-.27-.15-.45-.27-.64-.36-3.32-1.59-6.63-3.19-10-4.76a1.26,1.26,0,0,1-.76-1c-.81-3.62-1.65-7.24-2.46-10.86-.11-.51-.29-.58-.74-.35-1.78.88-3.57,1.73-5.36,2.59l-5.2,2.5c-.93-4.05-1.84-8-2.77-12-.29.12-.48.19-.66.28-3.35,1.61-6.7,3.21-10,4.83a1,1,0,0,1-1,0c-3.37-1.64-6.76-3.25-10.14-4.88l-.58-.25c-.93,4-1.84,8-2.76,12l-11.13-5.34c-.08.29-.15.48-.19.67q-1.24,5.43-2.47,10.86a1.08,1.08,0,0,1-.65.85c-3.38,1.6-6.74,3.23-10.1,4.85-.17.08-.34.19-.58.33l7.7,9.63-11.12,5.36c.19.26.3.44.44.6,2.25,2.84,4.5,5.68,6.78,8.49a1.49,1.49,0,0,1,.34,1.44c-.84,3.52-1.63,7.06-2.43,10.59,0,.22-.07.45-.12.79H124.8c-.92,4-1.81,8-2.73,12,.37,0,.64.05.9.05h11a1,1,0,0,1,.89.41c2.28,2.89,4.58,5.76,6.87,8.63.17.21.36.41.6.69,2.58-3.24,5.12-6.42,7.69-9.66l7.69,9.66c.26-.29.45-.5.63-.72,2.27-2.85,4.55-5.69,6.8-8.54a1.12,1.12,0,0,1,1-.47c3.66,0,7.32,0,11,0,.26,0,.52,0,.85-.07-.92-4-1.82-8-2.73-12,.29,0,.51,0,.72,0h10.92c.71,0,.73,0,.57-.72-.83-3.62-1.65-7.24-2.49-10.86a1,1,0,0,1,.23-1Q188.66,116.27,192.13,111.88Zm-24.68-25.8,9.69,4.64a1.22,1.22,0,0,1,.75.92c1,4.53,2.06,9,3.09,13.57,0,.16.05.32.09.59-.71-.33-1.32-.61-1.92-.91L168,99.51a1.06,1.06,0,0,1-.68-.78q-1.56-7-3.16-13.91c0-.07,0-.14,0-.36ZM136.87,84q6.24-3,12.46-6a1.34,1.34,0,0,1,1.33,0c4.11,2,8.23,4,12.36,6l.64.33-5.14,2.48c-2.66,1.29-5.33,2.58-8,3.85a1.25,1.25,0,0,1-.91.05q-6.45-3.08-12.88-6.19a2.76,2.76,0,0,1-.32-.21Zm13,7.13-17,8.2Zm-9.54,41.8L128.6,118.21Zm-11.83-15c1.41-6.17,2.79-12.18,4.2-18.38Zm-9.07-14.54q1.36-5.93,2.74-11.86a1.05,1.05,0,0,1,.47-.65c4.31-2.1,8.64-4.17,13-6.25l.33-.14c-.24,1.1-.47,2.13-.71,3.16-.83,3.66-1.67,7.31-2.49,11a1.24,1.24,0,0,1-.77,1c-4.11,2-8.21,4-12.31,5.92l-.75.34Zm5.43,29.49-.61-.75c-2.83-3.53-5.64-7.07-8.47-10.6a1.06,1.06,0,0,1-.25-1c1-4.56,2.08-9.12,3.12-13.68,0-.15.09-.28.16-.54l2.5,3.13c2.18,2.73,4.35,5.46,6.54,8.18a1.24,1.24,0,0,1,.28,1.21c-1,4.49-2.07,9-3.1,13.48C125,132.42,124.94,132.59,124.86,132.86Zm24.22,12.26H135.35a1.32,1.32,0,0,1-1.2-.58c-2.8-3.55-5.63-7.07-8.46-10.61l-.51-.68c.3,0,.48,0,.65,0h13.91a1,1,0,0,1,.93.43q4.4,5.54,8.8,11c.08.1.14.21.26.39C149.47,145.09,149.28,145.12,149.08,145.12Zm.79-16.19a15.39,15.39,0,1,1,15.39-15.38A15.39,15.39,0,0,1,149.87,128.93Zm24.58,4.81q-4.35,5.46-8.69,10.92a1.11,1.11,0,0,1-1,.46H150.94c-.19,0-.38,0-.69,0l.83-1.08q4.14-5.19,8.3-10.38a1.16,1.16,0,0,1,.77-.38q7,0,14.06,0c.16,0,.32,0,.6,0C174.65,133.47,174.56,133.61,174.45,133.74Zm9.91-12.43q-4.5,5.68-9,11.34a.81.81,0,0,0-.1.21l-.13-.07-.81-3.53q-1.2-5.23-2.42-10.47a1.32,1.32,0,0,1,.3-1.25q4.32-5.39,8.6-10.77c.12-.16.25-.3.44-.53.43,1.86.84,3.6,1.24,5.35.68,3,1.37,6,2,9A.94.94,0,0,1,184.36,121.31Z"/><g id="_Group_" data-name="&lt;Group&gt;"><path id="_Path_" data-name="&lt;Path&gt;" class="cls-2" d="M87.88,202.55a7.1,7.1,0,0,0-4,1.17,7.83,7.83,0,0,0-1.75,1.59c0-.63-.07-1.2-.12-1.7L82,203.1h-4.9l.06.63c0,.63.09,1.37.12,2.2s0,1.52,0,2v16.27h5.12V213.17a8.09,8.09,0,0,1,.32-2.27,5.29,5.29,0,0,1,.93-1.85,4.53,4.53,0,0,1,1.55-1.25,5,5,0,0,1,2.23-.47,6.91,6.91,0,0,1,1.68.2l.68.17.22-4.84-.45-.12A6.51,6.51,0,0,0,87.88,202.55Z"/><path id="_Compound_Path_2" data-name="&lt;Compound Path&gt;" class="cls-2" d="M108.91,205.52a8.85,8.85,0,0,0-3.26-2.21,11.88,11.88,0,0,0-8.52.06,10.71,10.71,0,0,0-3.49,2.3,10.27,10.27,0,0,0-2.3,3.55,12,12,0,0,0-.83,4.49,11.83,11.83,0,0,0,.85,4.53,10.5,10.5,0,0,0,2.32,3.5A10.31,10.31,0,0,0,97.21,224a11.85,11.85,0,0,0,4.42.8,12.06,12.06,0,0,0,5.08-1,10.62,10.62,0,0,0,4-3.31L111,220l-3.72-3-.35.53a6.65,6.65,0,0,1-2.13,2,6.1,6.1,0,0,1-3.21.81,6,6,0,0,1-4.12-1.59A5.73,5.73,0,0,1,96.23,217a5.17,5.17,0,0,1-.46-1.54h15.78l.06-.51a6.27,6.27,0,0,0,0-.74v-.68A13.59,13.59,0,0,0,111,209,10,10,0,0,0,108.91,205.52Zm-7.49,1.31a5.62,5.62,0,0,1,2.2.39,4.48,4.48,0,0,1,1.53,1.07,4.42,4.42,0,0,1,.93,1.59,6.72,6.72,0,0,1,.33,1.44H95.8a4.73,4.73,0,0,1,.47-1.37,5.8,5.8,0,0,1,1.22-1.63,5.74,5.74,0,0,1,1.76-1.09A5.85,5.85,0,0,1,101.42,206.83Z"/><path id="_Path_2" data-name="&lt;Path&gt;" class="cls-2" d="M119.47,217.82a3.33,3.33,0,0,0-3.4,3.36,3.19,3.19,0,0,0,1,2.33,3.44,3.44,0,0,0,4.86,0,3.36,3.36,0,0,0,1-2.34,3.22,3.22,0,0,0-1-2.35A3.32,3.32,0,0,0,119.47,217.82Z"/><path id="_Path_3" data-name="&lt;Path&gt;" class="cls-2" d="M119.47,202.85a3.23,3.23,0,0,0-2.44,1,3.3,3.3,0,0,0-1,2.34,3.17,3.17,0,0,0,1,2.35,3.31,3.31,0,0,0,2.4,1,3.34,3.34,0,1,0,0-6.68Z"/><path id="_Compound_Path_3" data-name="&lt;Compound Path&gt;" class="cls-2" d="M148.14,205.77a10,10,0,0,0-3.35-2.37,10.7,10.7,0,0,0-4.29-.85,9.08,9.08,0,0,0-4.58,1.11,9.87,9.87,0,0,0-2.08,1.57v-14h-5.12v33h5v-2.19a8.51,8.51,0,0,0,2.37,1.73,9.85,9.85,0,0,0,4.33,1,10.73,10.73,0,0,0,4.4-.87,9.9,9.9,0,0,0,3.35-2.39A10.79,10.79,0,0,0,150.3,218a12.43,12.43,0,0,0,.75-4.33,12.28,12.28,0,0,0-.75-4.31A10.85,10.85,0,0,0,148.14,205.77ZM139.76,207a6.22,6.22,0,0,1,2.64.53,5.56,5.56,0,0,1,1.89,1.45,6.33,6.33,0,0,1,1.16,2.12,8.27,8.27,0,0,1,0,5,6.33,6.33,0,0,1-1.16,2.12,5.8,5.8,0,0,1-1.9,1.48,6,6,0,0,1-2.63.55,5.75,5.75,0,0,1-2.52-.54,6.07,6.07,0,0,1-1.94-1.44,6.41,6.41,0,0,1-1.26-2.11,7.34,7.34,0,0,1,0-5.06A6.71,6.71,0,0,1,135.3,209a6.09,6.09,0,0,1,1.94-1.46A5.92,5.92,0,0,1,139.76,207Z"/><path id="_Path_4" data-name="&lt;Path&gt;" class="cls-2" d="M174.33,221.41c0-.83-.05-1.51-.05-2V203.1h-5.12v11.2a6.78,6.78,0,0,1-1.34,4.42,4.19,4.19,0,0,1-3.43,1.59,4.05,4.05,0,0,1-2-.43,3.21,3.21,0,0,1-1.19-1.15,5.16,5.16,0,0,1-.62-1.76,13.46,13.46,0,0,1-.18-2.24V203.1h-5.12v13a11.65,11.65,0,0,0,.47,3.33,8,8,0,0,0,1.45,2.79,6.84,6.84,0,0,0,2.53,1.91,8.84,8.84,0,0,0,3.59.68,8.13,8.13,0,0,0,6.09-2.7c0,.6.07,1.15.13,1.64l.06.52h4.9l-.06-.63C174.4,223,174.35,222.24,174.33,221.41Z"/><rect id="_Path_5" data-name="&lt;Path&gt;" class="cls-2" x="180.04" y="203.1" width="5.12" height="21.15"/><path id="_Path_6" data-name="&lt;Path&gt;" class="cls-2" d="M182.58,193.31a3.1,3.1,0,0,0-2.24.91,3,3,0,0,0-.93,2.25,3,3,0,0,0,.93,2.2,3.08,3.08,0,0,0,2.24.9,3.22,3.22,0,0,0,2.26-.87,3,3,0,0,0,1-2.23,3,3,0,0,0-1-2.26A3.18,3.18,0,0,0,182.58,193.31Z"/><rect id="_Path_7" data-name="&lt;Path&gt;" class="cls-2" x="191.01" y="191.21" width="5.12" height="33.04"/><path id="_Compound_Path_4" data-name="&lt;Compound Path&gt;" class="cls-2" d="M217.79,191.21v14a10.13,10.13,0,0,0-2.09-1.55,9,9,0,0,0-4.54-1.11,10.85,10.85,0,0,0-4.32.85,9.79,9.79,0,0,0-3.38,2.37,10.7,10.7,0,0,0-2.17,3.55,12.24,12.24,0,0,0-.75,4.31,12.43,12.43,0,0,0,.75,4.33,10.79,10.79,0,0,0,2.14,3.57,9.94,9.94,0,0,0,3.36,2.39,10.78,10.78,0,0,0,4.41.87,9.91,9.91,0,0,0,4.36-1,8.26,8.26,0,0,0,2.36-1.71v2.17h5v-33Zm-5.92,29.1a5.56,5.56,0,0,1-4.49-2,6.33,6.33,0,0,1-1.16-2.12,8.27,8.27,0,0,1,0-5,6.33,6.33,0,0,1,1.16-2.12,5.62,5.62,0,0,1,1.88-1.45,6,6,0,0,1,2.61-.53,5.92,5.92,0,0,1,2.52.53,6.09,6.09,0,0,1,1.94,1.46,6.6,6.6,0,0,1,1.26,2.13,7.34,7.34,0,0,1,0,5.06,6.41,6.41,0,0,1-1.26,2.11,6.07,6.07,0,0,1-1.94,1.44A5.78,5.78,0,0,1,211.87,220.31Z"/></g></svg>