<svg id="logo" xmlns="http://www.w3.org/2000/svg" viewBox="0 0 300 100"><defs><style>.cls-1{fill:#fff;}</style></defs><title>name</title><g id="_Group_" data-name="&lt;Group&gt;"><path id="_Path_" data-name="&lt;Path&gt;" class="cls-1" d="M53.08,41.46a11.11,11.11,0,0,0-6.23,1.84,11.8,11.8,0,0,0-2.73,2.49c0-1-.11-1.89-.2-2.66l-.09-.81H36.14l.08,1c.09,1,.15,2.16.2,3.46s.06,2.39.06,3.22V75.52h8V58.12a12.58,12.58,0,0,1,.5-3.55,8.52,8.52,0,0,1,1.46-2.9,7.06,7.06,0,0,1,2.44-2,7.73,7.73,0,0,1,3.5-.73,11,11,0,0,1,2.63.3l1.07.27.35-7.6-.7-.19A11,11,0,0,0,53.08,41.46Z"/><path id="_Compound_Path_" data-name="&lt;Compound Path&gt;" class="cls-1" d="M86.09,46.12A13.85,13.85,0,0,0,81,42.65a18.7,18.7,0,0,0-13.39.1,16.61,16.61,0,0,0-5.47,3.61,16.27,16.27,0,0,0-3.62,5.57,18.89,18.89,0,0,0-1.29,7,18.48,18.48,0,0,0,1.33,7.1,16.31,16.31,0,0,0,3.64,5.5,16.09,16.09,0,0,0,5.54,3.54,19.86,19.86,0,0,0,14.91-.4,16.63,16.63,0,0,0,6.27-5.19l.53-.7L83.6,64.14l-.55.83a10.25,10.25,0,0,1-3.35,3.1,9.63,9.63,0,0,1-5,1.26,9.49,9.49,0,0,1-6.47-2.49,8.84,8.84,0,0,1-2-2.74,8.25,8.25,0,0,1-.73-2.42H90.24l.1-.8a9.29,9.29,0,0,0,.07-1.17V58.65a21.35,21.35,0,0,0-1.11-7.09A15.75,15.75,0,0,0,86.09,46.12ZM74.34,48.17a8.86,8.86,0,0,1,3.45.62,6.94,6.94,0,0,1,2.4,1.67A7.25,7.25,0,0,1,81.66,53a10.29,10.29,0,0,1,.51,2.27H65.5a8.24,8.24,0,0,1,.74-2.16,9.08,9.08,0,0,1,1.93-2.56,8.87,8.87,0,0,1,2.76-1.71A9.22,9.22,0,0,1,74.34,48.17Z"/><path id="_Path_2" data-name="&lt;Path&gt;" class="cls-1" d="M102.68,65.43a5.26,5.26,0,0,0-5.35,5.27,5,5,0,0,0,1.56,3.66,5.19,5.19,0,0,0,3.79,1.56,5.1,5.1,0,0,0,3.83-1.61A5.17,5.17,0,0,0,108,70.64,5,5,0,0,0,106.5,67,5.21,5.21,0,0,0,102.68,65.43Z"/><path id="_Path_3" data-name="&lt;Path&gt;" class="cls-1" d="M102.68,41.92a5.07,5.07,0,0,0-3.84,1.61,5.19,5.19,0,0,0-1.51,3.67,5,5,0,0,0,1.57,3.69,5.21,5.21,0,0,0,3.78,1.52A5.26,5.26,0,0,0,108,47.13a5.09,5.09,0,0,0-1.51-3.64A5.16,5.16,0,0,0,102.68,41.92Z"/><path id="_Compound_Path_2" data-name="&lt;Compound Path&gt;" class="cls-1" d="M147.68,46.52a15.61,15.61,0,0,0-5.25-3.73,16.82,16.82,0,0,0-6.74-1.33,14.28,14.28,0,0,0-7.19,1.74,15.31,15.31,0,0,0-3.26,2.46v-22h-8V75.52H125V72.09a13.19,13.19,0,0,0,3.71,2.71,15.33,15.33,0,0,0,6.81,1.58,16.86,16.86,0,0,0,6.9-1.37,15.52,15.52,0,0,0,5.26-3.76,17,17,0,0,0,3.35-5.6,19.64,19.64,0,0,0,1.18-6.8,19.39,19.39,0,0,0-1.18-6.77A16.83,16.83,0,0,0,147.68,46.52Zm-13.16,2a9.72,9.72,0,0,1,4.15.84,8.62,8.62,0,0,1,3,2.27,9.72,9.72,0,0,1,1.82,3.33,12.86,12.86,0,0,1,0,7.89,9.72,9.72,0,0,1-1.82,3.33,9,9,0,0,1-3,2.31,9.39,9.39,0,0,1-4.14.86,9.2,9.2,0,0,1-3.94-.83,9.66,9.66,0,0,1-3.06-2.27,10.26,10.26,0,0,1-2-3.3,11.64,11.64,0,0,1,0-8,10.75,10.75,0,0,1,2-3.35,9.25,9.25,0,0,1,3.05-2.29A9.06,9.06,0,0,1,134.52,48.5Z"/><path id="_Path_4" data-name="&lt;Path&gt;" class="cls-1" d="M188.8,71.07c-.05-1.31-.07-2.38-.07-3.21V42.32h-8V59.91a10.65,10.65,0,0,1-2.11,6.94,6.58,6.58,0,0,1-5.39,2.48,6.25,6.25,0,0,1-3.12-.67,5,5,0,0,1-1.86-1.8,7.92,7.92,0,0,1-1-2.76,22.24,22.24,0,0,1-.28-3.53V42.32h-8V62.69a18.41,18.41,0,0,0,.73,5.23,12.72,12.72,0,0,0,2.29,4.38,10.61,10.61,0,0,0,4,3,13.81,13.81,0,0,0,5.64,1.07,12.79,12.79,0,0,0,9.56-4.25c0,1,.11,1.81.2,2.58l.09.81h7.69l-.09-1C188.91,73.54,188.84,72.37,188.8,71.07Z"/><rect id="_Path_5" data-name="&lt;Path&gt;" class="cls-1" x="197.78" y="42.32" width="8.04" height="33.2"/><path id="_Path_6" data-name="&lt;Path&gt;" class="cls-1" d="M201.76,27a4.85,4.85,0,0,0-3.52,1.41,4.77,4.77,0,0,0-1.46,3.53,4.65,4.65,0,0,0,1.46,3.46,4.82,4.82,0,0,0,3.52,1.42,5.08,5.08,0,0,0,3.54-1.36,4.62,4.62,0,0,0,1.51-3.52,4.7,4.7,0,0,0-1.5-3.54A5,5,0,0,0,201.76,27Z"/><rect id="_Path_7" data-name="&lt;Path&gt;" class="cls-1" x="214.99" y="23.65" width="8.04" height="51.87"/><path id="_Compound_Path_3" data-name="&lt;Compound Path&gt;" class="cls-1" d="M257,23.65v22a16.18,16.18,0,0,0-3.28-2.44,14.2,14.2,0,0,0-7.14-1.74,17.09,17.09,0,0,0-6.78,1.33,15.62,15.62,0,0,0-5.31,3.73,16.83,16.83,0,0,0-3.39,5.56A19.17,19.17,0,0,0,230,58.85a19.47,19.47,0,0,0,1.19,6.81,16.69,16.69,0,0,0,3.36,5.59A15.52,15.52,0,0,0,239.76,75a17,17,0,0,0,6.93,1.37,15.59,15.59,0,0,0,6.85-1.58,12.59,12.59,0,0,0,3.69-2.68v3.4h7.84V23.65Zm-9.29,45.68a8.75,8.75,0,0,1-7.05-3.17,9.72,9.72,0,0,1-1.82-3.33,12.86,12.86,0,0,1,0-7.89,9.72,9.72,0,0,1,1.82-3.33,8.7,8.7,0,0,1,2.94-2.27,9.33,9.33,0,0,1,4.11-.84,9.15,9.15,0,0,1,7,3.13,10.8,10.8,0,0,1,2,3.35,11.64,11.64,0,0,1,0,8,10.26,10.26,0,0,1-2,3.3,9.66,9.66,0,0,1-3.06,2.27A9.2,9.2,0,0,1,247.75,69.33Z"/></g></svg>