<svg width="25" height="25" viewBox="0 0 25 25" fill="none" xmlns="http://www.w3.org/2000/svg">
<g clip-path="url(#clip0_957_2188)">
<path d="M12.5 24.5C19.1274 24.5 24.5 19.1274 24.5 12.5C24.5 5.87258 19.1274 0.5 12.5 0.5C5.87258 0.5 0.5 5.87258 0.5 12.5C0.5 19.1274 5.87258 24.5 12.5 24.5Z" fill="#363636"/>
<path d="M12.5 23.75C18.7132 23.75 23.75 18.7132 23.75 12.5C23.75 6.2868 18.7132 1.25 12.5 1.25C6.2868 1.25 1.25 6.2868 1.25 12.5C1.25 18.7132 6.2868 23.75 12.5 23.75Z" fill="#FE4FB7"/>
<path d="M12.4999 22.2537C17.8862 22.2537 22.2527 17.8872 22.2527 12.5009C22.2527 7.11453 17.8862 2.74805 12.4999 2.74805C7.11355 2.74805 2.74707 7.11453 2.74707 12.5009C2.74707 17.8872 7.11355 22.2537 12.4999 22.2537Z" fill="#FED2ED"/>
<g clip-path="url(#clip1_957_2188)">
<path d="M15.0946 13.8555C15.1761 13.905 15.2823 13.8791 15.3318 13.7976C15.6447 13.2827 15.8102 12.69 15.8102 12.0839C15.8102 11.4976 15.6548 10.9214 15.3608 10.418C15.3359 10.3755 15.2941 10.3456 15.2457 10.3358C15.2183 10.3303 15.1891 10.3225 15.1564 10.312C15.1061 10.2958 15.0511 10.3034 15.0072 10.333C14.9633 10.3624 14.9353 10.4104 14.9313 10.4632C14.9194 10.6185 14.8653 10.7677 14.7747 10.8948C14.6821 11.025 14.5546 11.1262 14.4055 11.1875C14.3011 11.2307 14.1916 11.2525 14.0801 11.2525C13.8751 11.2525 13.6767 11.1787 13.5215 11.0444C13.4813 11.0096 13.4274 10.9953 13.3753 11.0055C13.3233 11.0157 13.2787 11.0493 13.2546 11.0967C13.1082 11.3848 12.8167 11.5637 12.494 11.5637H12.4918C12.1681 11.5632 11.8764 11.3833 11.7306 11.0942C11.7067 11.0469 11.6623 11.0131 11.6103 11.0027C11.5583 10.9922 11.5043 11.0063 11.464 11.0409C11.3088 11.174 11.1111 11.2472 10.9072 11.2472C10.7949 11.2472 10.6846 11.225 10.5794 11.1812C10.431 11.1196 10.3037 11.0179 10.2112 10.8869C10.1212 10.7597 10.0675 10.6103 10.056 10.4548C10.0521 10.4018 10.024 10.3536 9.9797 10.324C9.93553 10.2945 9.88019 10.287 9.82963 10.3036C9.8103 10.31 9.78919 10.316 9.76684 10.3215C9.72178 10.3324 9.68303 10.361 9.65926 10.4008C9.35638 10.9096 9.19629 11.4913 9.19629 12.0829C9.19602 12.8212 9.43363 13.5195 9.88338 14.1023C10.086 14.3651 10.2329 14.6665 10.32 14.9981C10.6276 16.1684 11.505 16.9548 12.5032 16.9548C13.5014 16.9548 14.3788 16.1685 14.6864 14.998C14.7446 14.7759 14.8322 14.5633 14.9465 14.3661C14.9943 14.2836 14.9661 14.1779 14.8836 14.1301C14.8011 14.0823 14.6955 14.1104 14.6477 14.1929C14.5178 14.4169 14.4185 14.6584 14.3525 14.9103C14.1038 15.8563 13.4427 16.5131 12.6758 16.5995V15.8774L13.3693 15.184C13.4367 15.1165 13.4367 15.0073 13.3693 14.9399C13.3018 14.8725 13.1925 14.8724 13.1251 14.9399L12.5032 15.5618L11.8813 14.9399C11.8138 14.8725 11.7046 14.8724 11.6372 14.9399C11.5697 15.0073 11.5697 15.1165 11.6372 15.1839L12.3305 15.8774V16.5995C11.5637 16.5131 10.9026 15.8563 10.6539 14.9103C10.555 14.5339 10.3879 14.191 10.1568 13.8914C9.75407 13.3695 9.5413 12.7442 9.54156 12.083C9.54156 11.6619 9.63212 11.2466 9.80551 10.8652C9.83877 10.9427 9.88019 11.0169 9.92932 11.0862C10.0593 11.2704 10.2383 11.4134 10.4468 11.5001C10.5942 11.5614 10.7492 11.5925 10.9072 11.5925C11.1265 11.5925 11.3406 11.5323 11.5266 11.4202C11.7497 11.7252 12.1042 11.9084 12.4914 11.909H12.494C12.8797 11.909 13.2338 11.727 13.4574 11.4234C13.6441 11.5369 13.8593 11.5978 14.08 11.5978C14.237 11.5978 14.3908 11.5671 14.537 11.5068C14.7462 11.4206 14.9257 11.2782 15.0558 11.095C15.1118 11.0165 15.1578 10.932 15.1933 10.8434C15.3716 11.2302 15.4648 11.6539 15.4648 12.084C15.4648 12.6268 15.3168 13.1574 15.0367 13.6183C14.9872 13.6998 15.0131 13.8059 15.0946 13.8555V13.8555Z" fill="#E547A5"/>
<path d="M11.0885 12.5833C11.0885 12.8667 10.8588 13.0963 10.5755 13.0963C10.2921 13.0963 10.0625 12.8667 10.0625 12.5833C10.0625 12.3 10.2921 12.0703 10.5755 12.0703C10.8588 12.0703 11.0885 12.3 11.0885 12.5833Z" fill="#E547A5"/>
<path d="M14.9439 12.5833C14.9439 12.8667 14.7142 13.0963 14.431 13.0963C14.1476 13.0963 13.918 12.8667 13.918 12.5833C13.918 12.3 14.1476 12.0703 14.431 12.0703C14.7142 12.0703 14.9439 12.3 14.9439 12.5833Z" fill="#E547A5"/>
<path d="M18.1156 11.8142C18.0262 11.6719 17.9105 11.5489 17.7756 11.4516C17.9944 11.1009 18.0331 10.6662 17.8713 10.2754C17.8702 10.2726 17.869 10.2697 17.8676 10.267C17.8317 10.1823 17.7874 10.1024 17.7355 10.0281C18.2342 9.42362 18.4243 8.62682 18.2449 7.85077C18.23 7.78647 18.1799 7.73627 18.1156 7.72146C17.4191 7.56049 16.7059 7.69707 16.1301 8.08722C15.9917 8.03782 15.8467 8.01237 15.6974 8.01237C15.6276 8.01237 15.5584 8.01795 15.4901 8.02895C15.452 7.86656 15.3828 7.71224 15.2854 7.57494C15.1453 7.37716 14.9523 7.22319 14.7273 7.12971C14.5695 7.06417 14.4029 7.03091 14.2324 7.03091C13.9907 7.03091 13.7548 7.09876 13.5512 7.22479C13.4539 7.08971 13.331 6.97397 13.1887 6.88448C12.9839 6.75579 12.7469 6.68768 12.5026 6.6875C12.0811 6.6875 11.695 6.88874 11.4545 7.22364C11.2506 7.09708 11.0142 7.02887 10.772 7.02887C10.6169 7.02887 10.464 7.05681 10.3177 7.11198C10.2285 7.14568 10.1834 7.24528 10.217 7.3345C10.2507 7.42364 10.3503 7.46869 10.4396 7.43508C10.5467 7.39463 10.6586 7.37415 10.772 7.37415C10.9989 7.37415 11.219 7.45592 11.3913 7.60439C11.4316 7.63898 11.4856 7.65317 11.5375 7.64297C11.5895 7.63268 11.634 7.59898 11.658 7.55171C11.8204 7.23162 12.1439 7.03277 12.5031 7.03277C12.6817 7.03295 12.8552 7.0828 13.005 7.17681C13.1513 7.26887 13.2698 7.39871 13.3476 7.5525C13.3715 7.59978 13.416 7.63348 13.4679 7.64386C13.52 7.65414 13.5738 7.64004 13.6141 7.60545C13.7862 7.4576 14.0058 7.37619 14.2324 7.37619C14.3572 7.37619 14.4792 7.40058 14.5948 7.44865C14.7598 7.5172 14.9011 7.62984 15.0036 7.77459C15.1038 7.91587 15.1634 8.08146 15.1763 8.25343C15.1802 8.30638 15.2083 8.35454 15.2524 8.38407C15.2966 8.4136 15.3518 8.42114 15.4023 8.40465C15.4971 8.37352 15.5965 8.35773 15.6974 8.35773C15.729 8.35773 15.7602 8.35941 15.7913 8.36243C15.7795 8.37369 15.7678 8.38487 15.7562 8.3964C15.6934 8.45919 15.6334 8.52589 15.5778 8.59445C15.0768 9.2128 15.2693 9.91514 15.6603 10.3062C15.8848 10.5306 16.2118 10.6897 16.5666 10.6897C16.8299 10.6897 17.1086 10.6021 17.3719 10.3887C17.4125 10.3558 17.4521 10.3213 17.4909 10.2858C17.514 10.3247 17.5346 10.3653 17.5521 10.4077C17.5531 10.4101 17.5542 10.4124 17.5553 10.4147C17.689 10.7454 17.6279 11.1177 17.3948 11.3884C17.3601 11.4286 17.3459 11.4825 17.3562 11.5346C17.3666 11.5867 17.4003 11.6311 17.4477 11.6551C17.6013 11.7329 17.7311 11.8514 17.8232 11.998C17.9174 12.1479 17.9671 12.3215 17.9671 12.4999V12.5122C17.9668 12.6906 17.9166 12.864 17.822 13.0139C17.7299 13.16 17.5999 13.2782 17.4459 13.3557C17.3984 13.3796 17.3647 13.4239 17.3543 13.476C17.3438 13.5281 17.3579 13.582 17.3924 13.6223C17.5397 13.7942 17.6209 14.0135 17.6209 14.2395C17.6209 14.3643 17.5962 14.4868 17.5476 14.6034C17.479 14.7682 17.3661 14.9093 17.2212 15.0116C17.0798 15.1114 16.9142 15.1708 16.7422 15.1832C16.6893 15.187 16.641 15.215 16.6114 15.259C16.5818 15.303 16.5741 15.3583 16.5905 15.4088C16.6212 15.5033 16.6369 15.6022 16.6369 15.7025C16.6369 15.9562 16.538 16.1945 16.3584 16.3733C16.18 16.5511 15.9428 16.6491 15.6904 16.6491C15.5893 16.6491 15.4892 16.633 15.393 16.6013C15.3427 16.5848 15.2873 16.5922 15.2433 16.6217C15.1991 16.6511 15.1709 16.6992 15.1669 16.7521C15.1536 16.9242 15.0936 17.0897 14.9931 17.2306C14.8904 17.3751 14.7488 17.4876 14.5838 17.5557C14.4679 17.6034 14.3465 17.6276 14.223 17.6276C13.9957 17.6276 13.7757 17.5456 13.6035 17.3967C13.5634 17.362 13.5095 17.3476 13.4574 17.3578C13.4052 17.3681 13.3608 17.4016 13.3367 17.449C13.1741 17.7685 12.8509 17.967 12.4931 17.967V18.1396L12.4906 17.967C12.1319 17.9663 11.8086 17.7669 11.6468 17.4463C11.623 17.399 11.5786 17.3652 11.5267 17.3548C11.4746 17.3443 11.4208 17.3584 11.3805 17.3929C11.2079 17.5405 10.9884 17.6219 10.7625 17.6219C10.6382 17.6219 10.5159 17.5973 10.3994 17.5488C10.2347 17.4802 10.0935 17.3673 9.99097 17.2222C9.89111 17.081 9.8316 16.9153 9.819 16.7432C9.8151 16.6903 9.78707 16.6421 9.74299 16.6126C9.69891 16.5829 9.64366 16.5753 9.59319 16.5917C9.4983 16.6228 9.39914 16.6385 9.29874 16.6385C9.04553 16.6385 8.80748 16.5397 8.62868 16.3605C8.45068 16.182 8.35267 15.9446 8.35267 15.6921C8.35267 15.5906 8.36864 15.4907 8.40012 15.3952C8.4168 15.3448 8.40926 15.2896 8.37981 15.2454C8.35046 15.2012 8.3023 15.173 8.24944 15.169C8.07693 15.1557 7.91135 15.0959 7.77068 14.9958C7.62603 14.8929 7.51357 14.7514 7.44554 14.5864C7.39765 14.4708 7.37344 14.3493 7.37344 14.2254C7.37344 13.9982 7.4553 13.7782 7.60386 13.6059C7.63853 13.5658 7.65272 13.5118 7.64252 13.4597C7.63224 13.4076 7.59853 13.3632 7.55117 13.3391C7.23144 13.1768 7.03277 12.8533 7.03277 12.4937C7.03295 12.3153 7.08297 12.1417 7.17725 11.9918C7.26914 11.8458 7.39925 11.7273 7.5533 11.6491C7.60057 11.6252 7.63419 11.5808 7.64456 11.5288C7.65485 11.4768 7.64075 11.423 7.60625 11.3827C7.45867 11.2107 7.37743 10.9912 7.37743 10.7647C7.37743 10.6402 7.40182 10.5182 7.45007 10.4019C7.46683 10.3613 7.48643 10.3224 7.50842 10.285C7.54745 10.3208 7.58736 10.3556 7.62807 10.3886C7.89148 10.602 8.17006 10.6895 8.43338 10.6895C8.78824 10.6895 9.11533 10.5305 9.33972 10.306C9.73067 9.91505 9.92321 9.21271 9.42229 8.59436C9.36659 8.52571 9.30663 8.45901 9.24384 8.39631C9.23125 8.38372 9.21839 8.37157 9.20562 8.35933C9.23896 8.35578 9.27249 8.35392 9.30592 8.35392C9.40641 8.35392 9.50619 8.36997 9.60242 8.40154C9.65288 8.41813 9.70814 8.4105 9.75222 8.38097C9.7963 8.35152 9.82441 8.30336 9.8284 8.2505C9.84082 8.08571 9.89652 7.92625 9.98947 7.7894C10.043 7.71046 10.0225 7.60315 9.94361 7.54958C9.86468 7.49601 9.75736 7.51649 9.70388 7.59543C9.61492 7.72634 9.55098 7.8725 9.51488 8.02567C9.29927 7.99037 9.07293 8.01175 8.86735 8.08545C8.29192 7.69663 7.57982 7.56066 6.88448 7.72137C6.82018 7.73627 6.76998 7.78647 6.75508 7.85077C6.57584 8.62637 6.76564 9.42273 7.26381 10.0271C7.21131 10.1025 7.16687 10.1836 7.13113 10.2696C7.06541 10.428 7.03206 10.5946 7.03206 10.7647C7.03206 11.0063 7.09982 11.242 7.22568 11.4455C7.09033 11.5429 6.97442 11.6658 6.88501 11.8079C6.75606 12.0129 6.68777 12.2499 6.6875 12.4946C6.6875 12.9162 6.88856 13.3021 7.22319 13.5425C7.09645 13.7464 7.02816 13.9828 7.02816 14.2253C7.02816 14.3947 7.06124 14.5605 7.12643 14.7181C7.21929 14.9432 7.3729 15.1365 7.5706 15.277C7.70762 15.3745 7.86186 15.444 8.02443 15.4823C8.01316 15.5514 8.0074 15.6214 8.0074 15.692C8.0074 16.0365 8.14123 16.3604 8.38425 16.6042C8.62841 16.8489 8.9532 16.9836 9.29883 16.9836C9.36819 16.9836 9.43701 16.9781 9.50495 16.9672C9.54291 17.1297 9.612 17.284 9.70911 17.4214C9.84907 17.6196 10.0419 17.7738 10.2668 17.8674C10.4256 17.9335 10.5925 17.967 10.7626 17.967C11.0036 17.967 11.2389 17.8993 11.4426 17.7736C11.6825 18.1093 12.0684 18.3114 12.4902 18.3121H12.4932C12.9137 18.3121 13.2992 18.1113 13.5399 17.7772C13.7438 17.9043 13.9804 17.9728 14.2231 17.9728C14.3919 17.9728 14.5576 17.9398 14.7155 17.8748C14.9408 17.7818 15.1342 17.6282 15.2746 17.4307C15.3722 17.2937 15.4418 17.1396 15.4803 16.9771C15.5497 16.9885 15.6199 16.9943 15.6906 16.9943C16.0349 16.9943 16.3586 16.8605 16.6022 16.6178C16.8473 16.3738 16.9822 16.0487 16.9822 15.7024C16.9822 15.6334 16.9768 15.5649 16.9661 15.4974C17.1285 15.4597 17.2829 15.3907 17.4203 15.2935C17.6184 15.1539 17.7727 14.9611 17.8665 14.7362C17.9327 14.5772 17.9663 14.41 17.9663 14.2394C17.9663 13.9984 17.8987 13.7631 17.7733 13.5599C17.9086 13.4628 18.0245 13.34 18.1141 13.198C18.2434 12.9933 18.3121 12.7564 18.3125 12.5125V12.4998C18.3124 12.2563 18.2444 12.0192 18.1156 11.8142V11.8142ZM17.3259 9.96596C17.2715 10.0203 17.2139 10.0723 17.1545 10.1203C16.8887 10.3358 16.607 10.3798 16.36 10.3205C16.1273 10.2272 16.1533 9.92543 16.1757 9.7986C16.2602 9.31958 16.6779 8.80668 17.1652 8.80668C17.2605 8.80668 17.3378 8.72934 17.3378 8.634C17.3378 8.53866 17.2605 8.46141 17.1652 8.46141C16.4832 8.46141 15.944 9.12437 15.8356 9.73865C15.822 9.8159 15.8158 9.89022 15.8165 9.96109C15.5876 9.66113 15.5167 9.21812 15.846 8.81174C15.8941 8.7524 15.946 8.69476 16.0003 8.64048C16.5103 8.1305 17.2249 7.9086 17.9305 8.03578C18.0578 8.7415 17.8359 9.45599 17.3259 9.96596V9.96596ZM7.06949 8.03578C7.77521 7.9086 8.4897 8.1305 8.99967 8.64048C9.05395 8.69476 9.10593 8.7524 9.154 8.81174C9.48331 9.21821 9.41244 9.66131 9.18344 9.96117C9.18415 9.89031 9.17803 9.8159 9.16437 9.73865C9.05599 9.12437 8.51693 8.46141 7.8349 8.46141C7.73955 8.46141 7.66221 8.53866 7.66221 8.634C7.66221 8.72934 7.73946 8.80668 7.8349 8.80668C8.32208 8.80668 8.73981 9.31958 8.82433 9.7986C8.84677 9.92543 8.87267 10.2273 8.63994 10.3205C8.39303 10.3799 8.11135 10.3358 7.84545 10.1203C7.78612 10.0723 7.72847 10.0203 7.67419 9.96596C7.16413 9.45599 6.94222 8.7415 7.06949 8.03578Z" fill="#E547A5"/>
</g>
<g clip-path="url(#clip2_957_2188)">
<path d="M12.5 24.5C19.1274 24.5 24.5 19.1274 24.5 12.5C24.5 5.87258 19.1274 0.5 12.5 0.5C5.87258 0.5 0.5 5.87258 0.5 12.5C0.5 19.1274 5.87258 24.5 12.5 24.5Z" fill="#363636"/>
<path d="M12.5 23.75C18.7132 23.75 23.75 18.7132 23.75 12.5C23.75 6.2868 18.7132 1.25 12.5 1.25C6.2868 1.25 1.25 6.2868 1.25 12.5C1.25 18.7132 6.2868 23.75 12.5 23.75Z" fill="#2765AF"/>
<path d="M12.4999 22.2537C17.8862 22.2537 22.2527 17.8872 22.2527 12.5009C22.2527 7.11453 17.8862 2.74805 12.4999 2.74805C7.11355 2.74805 2.74707 7.11453 2.74707 12.5009C2.74707 17.8872 7.11355 22.2537 12.4999 22.2537Z" fill="#69D6F4"/>
<g clip-path="url(#clip3_957_2188)">
<path d="M14.4375 16.6979C12.8197 16.6979 11.415 15.7809 10.7143 14.4375H14.4375V13.1458H10.2945C10.2622 12.9359 10.2396 12.7196 10.2396 12.5C10.2396 12.2804 10.2622 12.0641 10.2945 11.8542H14.4375V10.5625H10.7143C11.415 9.21918 12.8164 8.30207 14.4375 8.30207C15.4805 8.30207 16.4331 8.68313 17.1661 9.31281L18.3125 8.17293C17.2856 7.25261 15.9261 6.6875 14.4375 6.6875C11.9091 6.6875 9.76168 8.30531 8.96406 10.5625H6.6875V11.8542H8.66375C8.63793 12.0673 8.625 12.2804 8.625 12.5C8.625 12.7196 8.63793 12.9327 8.66375 13.1458H6.6875V14.4375H8.96406C9.76168 16.6947 11.9091 18.3125 14.4375 18.3125C15.9261 18.3125 17.2856 17.7474 18.3125 16.8271L17.1661 15.6839C16.4331 16.3136 15.4805 16.6979 14.4375 16.6979Z" fill="#2765AF"/>
</g>
</g>
</g>
<defs>
<clipPath id="clip0_957_2188">
<rect width="24" height="24" fill="white" transform="translate(0.5 0.5)"/>
</clipPath>
<clipPath id="clip1_957_2188">
<rect width="11.625" height="11.625" fill="white" transform="translate(6.6875 6.6875)"/>
</clipPath>
<clipPath id="clip2_957_2188">
<rect width="24" height="24" fill="white" transform="translate(0.5 0.5)"/>
</clipPath>
<clipPath id="clip3_957_2188">
<rect width="11.625" height="11.625" fill="white" transform="translate(6.6875 6.6875)"/>
</clipPath>
</defs>
</svg>
