<svg width="32" height="32" viewBox="0 0 32 32" fill="none" xmlns="http://www.w3.org/2000/svg">
<path d="M31.2778 26.584C31.1673 26.5106 31.0323 26.4839 30.9022 26.5099C30.7721 26.5359 30.6577 26.6125 30.584 26.7228L30.0103 27.584L16.5971 6.50652L18.4165 3.77777C18.453 3.72311 18.4783 3.6618 18.491 3.59736C18.5038 3.53291 18.5037 3.46658 18.4908 3.40216C18.4779 3.33774 18.4525 3.27649 18.4159 3.2219C18.3794 3.16732 18.3324 3.12046 18.2778 3.08402C18.2231 3.04758 18.1618 3.02226 18.0974 3.00951C18.0329 2.99676 17.9666 2.99683 17.9022 3.00972C17.8377 3.0226 17.7765 3.04805 17.7219 3.0846C17.6673 3.12116 17.6205 3.16811 17.584 3.22277L16.0003 5.59902L14.4165 3.22277C14.3429 3.11238 14.2285 3.03574 14.0984 3.00972C13.9683 2.9837 13.8332 3.01042 13.7228 3.08402C13.6124 3.15762 13.5357 3.27206 13.5097 3.40216C13.4837 3.53226 13.5104 3.66738 13.584 3.77777L15.4034 6.50652L1.99027 27.584L1.41652 26.7228C1.34292 26.6124 1.22849 26.5357 1.09838 26.5097C0.96828 26.4837 0.833169 26.5104 0.722772 26.584C0.612376 26.6576 0.535738 26.7721 0.509717 26.9022C0.483696 27.0323 0.510425 27.1674 0.584022 27.2778L1.58402 28.7778C1.62985 28.8461 1.69179 28.9022 1.76437 28.941C1.83696 28.9798 1.91797 29.0001 2.00027 29.0003H30.0003C30.0826 29.0001 30.1636 28.9798 30.2362 28.941C30.3088 28.9022 30.3707 28.8461 30.4165 28.7778L31.4165 27.2778C31.49 27.1673 31.5166 27.0323 31.4906 26.9022C31.4646 26.7721 31.3881 26.6577 31.2778 26.584ZM11.7778 28.0003L16.0034 16.4478L20.2821 28.0003H11.7778ZM17.4984 17.6065L22.4259 23.5896L21.0184 27.109L17.4984 17.6065ZM21.739 28.0003L23.4646 23.6859C23.4978 23.6026 23.508 23.512 23.4942 23.4234C23.4805 23.3348 23.4433 23.2515 23.3865 23.1821L16.3865 14.6821C16.3305 14.6141 16.2575 14.5621 16.175 14.5314C16.0924 14.5006 16.0031 14.4923 15.9163 14.5071C15.8294 14.522 15.7481 14.5595 15.6804 14.6159C15.6127 14.6723 15.5611 14.7456 15.5309 14.8284L10.7134 28.0003H2.9109L16.0003 7.43152L29.0896 28.0003H21.739Z" fill="black"/>
</svg>
