<svg width="28" height="27" viewBox="0 0 28 27" fill="none" xmlns="http://www.w3.org/2000/svg">
<path d="M0.666687 2.74967C0.666687 1.27691 1.86059 0.0830078 3.33335 0.0830078H16.6667C18.1394 0.0830078 19.3334 1.27692 19.3334 2.74967V8.08301H24.6667C26.1394 8.08301 27.3334 9.27691 27.3334 10.7497V24.083C27.3334 25.5558 26.1394 26.7497 24.6667 26.7497H11.3334C9.86059 26.7497 8.66669 25.5558 8.66669 24.083V18.7497H3.33335C1.86059 18.7497 0.666687 17.5558 0.666687 16.083V2.74967ZM11.3334 18.7497V24.083H24.6667V10.7497H19.3334V16.083C19.3334 17.5558 18.1394 18.7497 16.6667 18.7497H11.3334ZM16.6667 16.083V2.74967L3.33335 2.74967V16.083H16.6667Z" fill="#FE4FB7"/>
</svg>
