<svg width="24" height="24" viewBox="0 0 24 24" fill="none" xmlns="http://www.w3.org/2000/svg">
<path d="M6.83431 0.590332H16.4943C20.1743 0.590332 23.1643 3.58033 23.1643 7.26033V16.9203C23.1643 18.6893 22.4616 20.3859 21.2107 21.6367C19.9598 22.8876 18.2633 23.5903 16.4943 23.5903H6.83431C3.15431 23.5903 0.164307 20.6003 0.164307 16.9203V7.26033C0.164307 5.49134 0.867037 3.7948 2.1179 2.54393C3.36877 1.29306 5.06531 0.590332 6.83431 0.590332ZM6.60431 2.89033C5.50631 2.89033 4.45329 3.32651 3.67688 4.10291C2.90048 4.87931 2.46431 5.93234 2.46431 7.03033V17.1503C2.46431 19.4388 4.31581 21.2903 6.60431 21.2903H16.7243C17.8223 21.2903 18.8753 20.8542 19.6517 20.0778C20.4281 19.3014 20.8643 18.2483 20.8643 17.1503V7.03033C20.8643 4.74183 19.0128 2.89033 16.7243 2.89033H6.60431ZM17.7018 4.61533C18.0831 4.61533 18.4487 4.76678 18.7183 5.03637C18.9879 5.30595 19.1393 5.67158 19.1393 6.05283C19.1393 6.43408 18.9879 6.79971 18.7183 7.0693C18.4487 7.33888 18.0831 7.49033 17.7018 7.49033C17.3206 7.49033 16.9549 7.33888 16.6853 7.0693C16.4158 6.79971 16.2643 6.43408 16.2643 6.05283C16.2643 5.67158 16.4158 5.30595 16.6853 5.03637C16.9549 4.76678 17.3206 4.61533 17.7018 4.61533ZM11.6643 6.34033C13.1893 6.34033 14.6518 6.94613 15.7302 8.02447C16.8085 9.1028 17.4143 10.5653 17.4143 12.0903C17.4143 13.6153 16.8085 15.0779 15.7302 16.1562C14.6518 17.2345 13.1893 17.8403 11.6643 17.8403C10.1393 17.8403 8.67678 17.2345 7.59844 16.1562C6.52011 15.0779 5.91431 13.6153 5.91431 12.0903C5.91431 10.5653 6.52011 9.1028 7.59844 8.02447C8.67678 6.94613 10.1393 6.34033 11.6643 6.34033ZM11.6643 8.64033C10.7493 8.64033 9.87179 9.00381 9.22479 9.65081C8.57779 10.2978 8.21431 11.1753 8.21431 12.0903C8.21431 13.0053 8.57779 13.8828 9.22479 14.5299C9.87179 15.1769 10.7493 15.5403 11.6643 15.5403C12.5793 15.5403 13.4568 15.1769 14.1038 14.5299C14.7508 13.8828 15.1143 13.0053 15.1143 12.0903C15.1143 11.1753 14.7508 10.2978 14.1038 9.65081C13.4568 9.00381 12.5793 8.64033 11.6643 8.64033Z" fill="white"/>
</svg>
