<svg width="60" height="61" viewBox="0 0 60 61" fill="none" xmlns="http://www.w3.org/2000/svg">
<path d="M29.9996 12.0919L11.2498 30.8418L29.9996 49.5917L48.7495 30.8418L29.9996 12.0919Z" fill="#171717"/>
<path fill-rule="evenodd" clip-rule="evenodd" d="M36.5382 5.88103C32.9441 2.28691 27.056 2.28691 23.4619 5.88103L5.03936 24.3035C1.44524 27.8977 1.44524 33.7859 5.03936 37.38L23.4619 55.8024L22.6332 56.6311L23.4619 55.8024C27.056 59.3967 32.9441 59.3967 36.5382 55.8024L37.3669 56.6311L36.5382 55.8024L54.9606 37.3799C58.5548 33.7858 58.5548 27.8975 54.9606 24.3034L36.5382 5.88103ZM21.8046 4.22374C26.314 -0.28568 33.6861 -0.28568 38.1955 4.22374L56.6179 22.6461C61.1274 27.1556 61.1274 34.5278 56.6179 39.0372L38.1955 57.4597C33.6861 61.9693 26.314 61.9693 21.8046 57.4597L3.38207 39.0373L4.21071 38.2087L3.38206 39.0373C-1.12735 34.5279 -1.12735 27.1557 3.38206 22.6462L21.8046 4.22374Z" fill="#171717"/>
<path fill-rule="evenodd" clip-rule="evenodd" d="M46.4293 21.311C46.887 21.7687 46.887 22.5107 46.4293 22.9683L30.8287 38.5689C30.3711 39.0266 29.6291 39.0266 29.1714 38.5689L22.2729 31.6704C21.8153 31.2128 21.8153 30.4708 22.2729 30.0131C22.7306 29.5555 23.4726 29.5555 23.9302 30.0131L30.0001 36.083L44.772 21.311C45.2297 20.8534 45.9717 20.8534 46.4293 21.311Z" fill="white"/>
</svg>
