<svg width="29" height="24" viewBox="0 0 29 24" fill="none" xmlns="http://www.w3.org/2000/svg">
<path d="M28.3489 3.29621C27.3072 3.76974 26.1842 4.08092 25.0207 4.22974C26.2113 3.51269 27.1313 2.37621 27.5642 1.00974C26.4413 1.68621 25.1966 2.15974 23.8842 2.43033C22.8154 1.2668 21.3136 0.590332 19.6089 0.590332C16.4295 0.590332 13.8319 3.18798 13.8319 6.39445C13.8319 6.85445 13.886 7.30092 13.9807 7.72033C9.16424 7.4768 4.87541 5.16327 2.0207 1.65916C1.52012 2.51151 1.236 3.51269 1.236 4.56798C1.236 6.58386 2.2507 8.36974 3.82012 9.38445C2.85953 9.38445 1.96659 9.11386 1.18188 8.70798V8.74857C1.18188 11.5627 3.18423 13.9168 5.836 14.4444C4.98463 14.6774 4.09083 14.7099 3.22482 14.5392C3.59229 15.6925 4.31196 16.7017 5.28267 17.4249C6.25338 18.1481 7.42631 18.5489 8.63659 18.5709C6.58503 20.195 4.04199 21.0729 1.42541 21.0603C0.96541 21.0603 0.50541 21.0333 0.0454102 20.9792C2.616 22.6297 5.67365 23.5903 8.94776 23.5903C19.6089 23.5903 25.4672 14.7421 25.4672 7.07092C25.4672 6.81386 25.4672 6.57033 25.4536 6.31327C26.5901 5.50151 27.5642 4.47327 28.3489 3.29621Z" fill="white"/>
</svg>
