<svg width="34" height="24" viewBox="0 0 34 24" fill="none" xmlns="http://www.w3.org/2000/svg">
<path d="M13.8191 17.0189L22.3456 12.0903L13.8191 7.16176V17.0189ZM32.8106 4.15533C33.0241 4.92747 33.172 5.96247 33.2706 7.27676C33.3856 8.59105 33.4348 9.72462 33.4348 10.7103L33.5334 12.0903C33.5334 15.6882 33.2705 18.3332 32.8106 20.0253C32.3998 21.5039 31.447 22.4568 29.9684 22.8675C29.1963 23.081 27.7834 23.2289 25.6148 23.3275C23.4791 23.4425 21.5241 23.4918 19.717 23.4918L17.1048 23.5903C10.2213 23.5903 5.93341 23.3275 4.24127 22.8675C2.7627 22.4568 1.80984 21.5039 1.39913 20.0253C1.18556 19.2532 1.0377 18.2182 0.939127 16.9039C0.824127 15.5896 0.774841 14.456 0.774841 13.4703L0.67627 12.0903C0.67627 8.49248 0.939127 5.84748 1.39913 4.15533C1.80984 2.67676 2.7627 1.7239 4.24127 1.31319C5.01341 1.09962 6.42627 0.95176 8.59484 0.853189C10.7306 0.738189 12.6856 0.688903 14.4927 0.688903L17.1048 0.590332C23.9884 0.590332 28.2763 0.853189 29.9684 1.31319C31.447 1.7239 32.3998 2.67676 32.8106 4.15533Z" fill="white"/>
</svg>
