<svg width="32" height="32" viewBox="0 0 32 32" fill="none" xmlns="http://www.w3.org/2000/svg">
<g clip-path="url(#clip0_1834_2602)">
<path d="M20.2667 20.3211V15.4672C20.2667 14.5851 19.5488 13.8672 18.6667 13.8672H3.73333C2.8512 13.8672 2.13333 14.5851 2.13333 15.4672V20.3211C0.917867 20.5691 0 21.6464 0 22.9339V26.1339V31.4672C0 31.7616 0.238933 32.0005 0.533333 32.0005H2.66667C2.96107 32.0005 3.2 31.7616 3.2 31.4672V29.8672H19.2V31.4672C19.2 31.7616 19.4389 32.0005 19.7333 32.0005H21.8667C22.1611 32.0005 22.4 31.7616 22.4 31.4672V26.1339V22.9339C22.4 21.6464 21.4821 20.5691 20.2667 20.3211ZM3.2 15.4672C3.2 15.1733 3.43947 14.9339 3.73333 14.9339H18.6667C18.9605 14.9339 19.2 15.1733 19.2 15.4672V20.2672H18.1333V18.1339C18.1333 17.2517 17.4155 16.5339 16.5333 16.5339H13.3333C12.4512 16.5339 11.7333 17.2517 11.7333 18.1339V20.2672H10.6667V18.1339C10.6667 17.2517 9.9488 16.5339 9.06667 16.5339H5.86667C4.98453 16.5339 4.26667 17.2517 4.26667 18.1339V20.2672H3.2V15.4672ZM17.0667 18.1339V20.2672H12.8V18.1339C12.8 17.84 13.0395 17.6005 13.3333 17.6005H16.5333C16.8272 17.6005 17.0667 17.84 17.0667 18.1339ZM9.6 18.1339V20.2672H5.33333V18.1339C5.33333 17.84 5.5728 17.6005 5.86667 17.6005H9.06667C9.36053 17.6005 9.6 17.84 9.6 18.1339ZM21.3333 30.9339H20.2667V29.3339C20.2667 29.0395 20.0277 28.8005 19.7333 28.8005H2.66667C2.37227 28.8005 2.13333 29.0395 2.13333 29.3339V30.9339H1.06667V26.6672H21.3333V30.9339ZM21.3333 25.6005H1.06667V22.9339C1.06667 22.0517 1.78453 21.3339 2.66667 21.3339H4.8H10.1333H12.2667H17.6H19.7333C20.6155 21.3339 21.3333 22.0517 21.3333 22.9339V25.6005Z" fill="black"/>
<path d="M31.4668 20.2676H24.0001C23.7057 20.2676 23.4668 20.5065 23.4668 20.8009V25.0676V28.8009H24.5335V25.6009H30.9335V28.8009H32.0001V25.0676V20.8009C32.0001 20.5065 31.7612 20.2676 31.4668 20.2676ZM30.9335 24.5342H24.5335V21.3342H30.9335V24.5342Z" fill="black"/>
<path d="M28.8003 22.4004H26.667V23.4671H28.8003V22.4004Z" fill="black"/>
<path d="M30.3727 15.8318L29.3061 12.6318C29.233 12.4142 29.0298 12.2676 28.7999 12.2676H26.6666C26.4367 12.2676 26.2335 12.4142 26.1605 12.6324L25.0938 15.8324C25.0394 15.995 25.0671 16.1737 25.1674 16.3129C25.2677 16.4521 25.4287 16.5342 25.5999 16.5342H27.1999V18.1342H26.1333V19.2009H29.3333V18.1342H28.2666V16.5342H29.8666C30.0378 16.5342 30.1989 16.4521 30.2991 16.3124C30.3994 16.1732 30.4266 15.9945 30.3727 15.8318ZM26.3397 15.4676L27.0511 13.3342H28.4159L29.1269 15.4676H26.3397Z" fill="black"/>
<path d="M31.6848 6.97973L16.2181 0.0464C16.0789 -0.0154667 15.9205 -0.0154667 15.7819 0.0464L0.3152 6.97973C0.1232 7.06613 0 7.25653 0 7.46667V13.8667H1.06667V7.81173L16 1.11787L30.9333 7.81227V13.8667H32V7.46667C32 7.25653 31.8768 7.06613 31.6848 6.97973Z" fill="black"/>
<path d="M19.6815 7.37904L18.6293 7.55611C18.6543 7.70171 18.6666 7.85104 18.6666 8.00091C18.6666 9.47131 17.4703 10.6676 15.9999 10.6676C14.5295 10.6676 13.3333 9.47131 13.3333 8.00091C13.3333 6.53051 14.5295 5.33424 15.9999 5.33424C16.305 5.33424 16.6047 5.38544 16.8895 5.48624L17.2447 4.48038C16.8453 4.33904 16.4266 4.26758 15.9999 4.26758C13.9413 4.26758 12.2666 5.94224 12.2666 8.00091C12.2666 10.0596 13.9413 11.7342 15.9999 11.7342C18.0586 11.7342 19.7333 10.0596 19.7333 8.00091C19.7333 7.79185 19.7157 7.58278 19.6815 7.37904Z" fill="black"/>
<path d="M19.3566 4.42383L16.0004 7.78009L15.3108 7.09049L14.5566 7.84463L15.6233 8.91129C15.7273 9.01529 15.8638 9.06756 16.0004 9.06756C16.1369 9.06756 16.2734 9.01529 16.3774 8.91129L20.1108 5.17796L19.3566 4.42383Z" fill="black"/>
</g>
<defs>
<clipPath id="clip0_1834_2602">
<rect width="32" height="32" fill="white"/>
</clipPath>
</defs>
</svg>
