<svg width="14" height="14" viewBox="0 0 14 14" fill="none" xmlns="http://www.w3.org/2000/svg">
<path d="M6.99992 1.66671C4.0544 1.66671 1.66659 4.05452 1.66659 7.00004C1.66659 9.94556 4.0544 12.3334 6.99992 12.3334C9.94544 12.3334 12.3333 9.94556 12.3333 7.00004C12.3333 4.05452 9.94544 1.66671 6.99992 1.66671ZM0.333252 7.00004C0.333252 3.31814 3.31802 0.333374 6.99992 0.333374C10.6818 0.333374 13.6666 3.31814 13.6666 7.00004C13.6666 10.6819 10.6818 13.6667 6.99992 13.6667C3.31802 13.6667 0.333252 10.6819 0.333252 7.00004Z" fill="#BBBBBB"/>
<path d="M6.99992 8.33337C6.63173 8.33337 6.33325 8.0349 6.33325 7.66671L6.33325 3.66671C6.33325 3.29852 6.63173 3.00004 6.99992 3.00004C7.36811 3.00004 7.66659 3.29852 7.66659 3.66671L7.66659 7.66671C7.66659 8.0349 7.36811 8.33337 6.99992 8.33337Z" fill="#BBBBBB"/>
<path d="M5.99992 10C5.99992 9.44776 6.44763 9.00004 6.99992 9.00004C7.5522 9.00004 7.99992 9.44776 7.99992 10C7.99992 10.5523 7.5522 11 6.99992 11C6.44763 11 5.99992 10.5523 5.99992 10Z" fill="#BBBBBB"/>
</svg>
